<?xml version="1.0" standalone="no"?>
<!DOCTYPE svg PUBLIC "-//W3C//DTD SVG 1.1//EN" "http://www.w3.org/Graphics/SVG/1.1/DTD/svg11.dtd" >
<svg xmlns="http://www.w3.org/2000/svg" xmlns:xlink="http://www.w3.org/1999/xlink" version="1.1">
<metadata>
Created by FontForge 20170924 at Tue Sep  3 10:38:08 2013
 By www-data
Adventure (c) (Neale Davidson). 2011. All Rights Reserved
</metadata>
<defs>
<font id="Adventure" horiz-adv-x="1200" >
  <font-face 
    font-family="Adventure"
    font-weight="400"
    font-stretch="normal"
    units-per-em="2048"
    panose-1="2 0 5 0 0 0 0 0 0 0"
    ascent="1638"
    descent="-410"
    x-height="1546"
    cap-height="1551"
    bbox="-166 -410 2194 2168"
    underline-thickness="150"
    underline-position="-292"
    unicode-range="U+001D-F002"
  />
<missing-glyph horiz-adv-x="1650" 
d="M0 200v1100q0 200 200 200h1100q200 0 200 -200v-1100q0 -200 -200 -200h-1100q-200 0 -200 200zM1475 201v1099q0 175 -175 175h-1100q-174 0 -175 -175v-1100q1 -175 175 -175h1101q174 0 174 176z" />
    <glyph glyph-name=".notdef" horiz-adv-x="1650" 
d="M0 200v1100q0 200 200 200h1100q200 0 200 -200v-1100q0 -200 -200 -200h-1100q-200 0 -200 200zM1475 201v1099q0 175 -175 175h-1100q-174 0 -175 -175v-1100q1 -175 175 -175h1101q174 0 174 176z" />
    <glyph glyph-name=".null" horiz-adv-x="0" 
 />
    <glyph glyph-name=".null" horiz-adv-x="0" 
 />
    <glyph glyph-name="nonmarkingreturn" horiz-adv-x="508" 
 />
    <glyph glyph-name="space" unicode=" " horiz-adv-x="652" 
 />
    <glyph glyph-name="space" unicode="&#xa0;" horiz-adv-x="652" 
 />
    <glyph glyph-name="exclam" unicode="!" horiz-adv-x="500" 
d="M113 361l363 46q-27 -89 -79 -299l-11 -2q-160 -31 -368 -87q45 181 95 342zM796 1591q-30 -205 -177 -709l-97 -306l-352 -31l191 625q42 175 100 379q125 19 335 42z" />
    <glyph glyph-name="quotedbl" unicode="&#x22;" horiz-adv-x="950" 
d="M389 1413q217 137 347 137q24 0 44 -9q-64 -215 -106 -354q-208 -120 -401 -247q63 264 116 473zM829 1413q217 137 347 137q24 0 44 -9q-64 -215 -106 -354q-208 -120 -401 -247q63 264 116 473z" />
    <glyph glyph-name="numbersign" unicode="#" horiz-adv-x="913" 
d="M632 1170l100 3q39 109 102 254l219 11l-97 -258l113 4l-63 -176l-116 -4l-39 -103l138 4l-63 -175l-141 -4l-101 -270l-244 -38q6 18 39 100l81 200l-99 -3l-97 -259l-244 -38q6 18 39 100l77 190l-94 -3l72 176l93 3q17 44 39 103l-124 -4l72 177l115 3q39 112 105 264
l219 11zM670 997l-104 -3l-39 -103l104 3q17 44 39 103z" />
    <glyph glyph-name="dollar" unicode="$" horiz-adv-x="781" 
d="M493 404q-44 -155 -61 -223l-9 -1q-128 -25 -294 -70q22 90 51 193q-33 -7 -69 -15l-68 259q106 11 239 35q201 97 201 192v10q0 48 -189 200q-91 119 -91 206q0 186 168 268q63 30 162 58q22 91 44 188q100 16 268 34q0 -43 -36 -196l112 -218q-79 -2 -137 -12
q-223 -28 -283 -96q-20 -24 -20 -50q0 -44 55 -110q233 -239 233 -312v-20q-20 -181 -251 -308q-12 -6 -25 -12z" />
    <glyph glyph-name="percent" unicode="%" horiz-adv-x="924" 
d="M643 1212q1 8 1 13q0 22 -13 34l12 7q-16 32 -53 32q-38 0 -63 -25q-24 -23 -30 -61q-1 -9 -1 -15q0 -29 17 -50q18 -22 46 -22q34 0 57 27q21 24 27 60zM788 649q1 8 1 13q0 23 -13 35l12 6q-16 32 -53 32q-38 0 -63 -24q-24 -23 -30 -62q-1 -9 -1 -15q0 -29 17 -49
q17 -22 46 -22q34 0 57 27q20 24 27 59zM441 898q-64 19 -106 71q-61 75 -61 195q0 26 2 55q16 128 112 221q100 94 228 94q193 0 273 -131l-37 -24q5 -14 9 -26q78 81 173 177l33 3q90 11 208 18q-50 -60 -133 -155l-369 -425q184 -4 261 -131l-37 -24q18 -50 18 -87
q0 -26 -8 -73q-25 -148 -110 -234q-92 -96 -235 -96q-117 0 -182 81q-51 62 -59 155l-147 -167l-303 -75q237 316 470 578z" />
    <glyph glyph-name="ampersand" unicode="&#x26;" horiz-adv-x="1050" 
d="M851 889h-138q-36 -1 -53 -6q-118 -27 -187 -103q-41 -46 -41 -75q0 -27 27 -44q22 -22 129 -38q137 6 177 72q44 46 86 194zM898 1084q9 47 19 100l260 20q-12 -63 -25 -121h70l-73 -194h-44q-70 -247 -150 -341q-165 -185 -440 -186h-11q-128 0 -227 43
q-137 59 -137 178q0 111 114 237q57 65 171 142q-35 49 -35 110q0 93 104 211q150 171 375 237q73 22 161 30q11 -1 40 -4l29 -4q34 -3 66 -22q50 -20 85 -49l-208 -166q-34 26 -99 47q-139 -7 -231 -109q-40 -43 -40 -76q0 -48 79 -74q25 -8 48 -9h99z" />
    <glyph glyph-name="quotesingle" unicode="'" horiz-adv-x="500" 
d="M389 1413q217 137 347 137q24 0 44 -9q-64 -215 -106 -354q-208 -120 -401 -247q63 264 116 473z" />
    <glyph glyph-name="parenleft" unicode="(" horiz-adv-x="1000" 
d="M524 806q-5 -42 -5 -84q0 -351 322 -662l-271 -60q-343 348 -343 716q0 53 7 107q84 394 516 657l395 61q-580 -347 -621 -735z" />
    <glyph glyph-name="parenright" unicode=")" horiz-adv-x="1000" 
d="M621 735q5 42 5 84q0 351 -322 662l271 60q343 -348 343 -716q0 -53 -7 -107q-84 -394 -516 -657l-395 -61q580 347 621 735z" />
    <glyph glyph-name="asterisk" unicode="*" horiz-adv-x="942" 
d="M466 1052q-43 24 -96 55q-62 34 -108 69q8 121 37 241q51 -37 207 -133l7 -5q10 48 22 108q14 69 32 125q118 29 241 38q-19 -60 -63 -238l-2 -7q48 5 109 11q70 8 129 8q65 -102 111 -217q-63 0 -246 -13l-8 -1q20 -44 45 -101q30 -64 47 -119q-77 -93 -172 -173
q-20 60 -88 230l-4 7q-36 -32 -81 -73q-51 -49 -99 -83q-112 45 -217 111q50 37 190 155z" />
    <glyph glyph-name="plus" unicode="+" horiz-adv-x="1075" 
d="M492 895l52 183l333 19l-54 -189l231 10l-79 -220l-229 -10l-67 -165l-329 -20l67 174l-221 -9l91 220z" />
    <glyph glyph-name="comma" unicode="," horiz-adv-x="500" 
d="M113 361l363 46q-27 -89 -186 -507l-20 -40q-90 -100 -320 -160q113 500 163 661z" />
    <glyph glyph-name="hyphen" unicode="-" horiz-adv-x="900" 
d="M257 946l769 30l-79 -220l-779 -30z" />
    <glyph glyph-name="hyphen" unicode="&#xad;" horiz-adv-x="900" 
d="M257 946l769 30l-79 -220l-779 -30z" />
    <glyph glyph-name="period" unicode="." horiz-adv-x="500" 
d="M113 361l363 46q-27 -89 -79 -299l-23 -48q-119 0 -356 -41q45 181 95 342z" />
    <glyph glyph-name="slash" unicode="/" horiz-adv-x="1250" 
d="M904 1114q156 169 396 411l41 4q113 13 260 22q-62 -75 -166 -193l-468 -539l-310 -363l-307 -350l-379 -93q322 427 637 777z" />
    <glyph glyph-name="zero" unicode="0" horiz-adv-x="1108" 
d="M1325 1302l-69 -46q33 -96 33 -165q0 -50 -15 -139q-48 -280 -208 -445q-175 -182 -447 -182q-222 0 -347 154q-115 142 -115 369q0 49 5 104q29 244 213 420q189 179 431 179q367 0 519 -249zM1005 923q7 34 7 55q0 93 -56 142l49 28q-64 133 -220 133q-157 0 -263 -101
q-99 -97 -123 -257q-6 -37 -6 -63q0 -120 71 -205q74 -91 192 -91q141 0 237 112q86 99 112 247z" />
    <glyph glyph-name="one" unicode="1" horiz-adv-x="450" 
d="M806 1550l-461 -1227l-305 -48q7 22 49 125l146 361q41 98 140 366q50 163 158 409z" />
    <glyph glyph-name="two" unicode="2" horiz-adv-x="1000" 
d="M471 560l576 73q-48 -118 -95 -253l-862 -67q75 195 144 288q135 183 248 275q181 147 447 217q92 24 92 121q0 72 -95 105q-12 4 -54 4q-165 0 -324 -47q35 79 87 214q16 37 16 60h152q98 0 149 -16q65 -6 156 -43q169 -70 169 -237q0 -127 -108 -227
q-169 -160 -432 -223q-91 -32 -189 -134q-40 -41 -77 -110z" />
    <glyph glyph-name="three" unicode="3" horiz-adv-x="1000" 
d="M607 860l66 194q314 7 314 160q0 72 -95 105q-39 13 -240 13q0 37 -18 109t-18 109h152q98 0 150 -16q64 -6 155 -43q170 -70 170 -237q0 -185 -216 -321q42 -67 42 -142q0 -136 -105 -246q-86 -90 -227 -148q-127 -50 -340 -64l-297 -20q6 15 82 158q20 37 55 120
q53 -4 148 -4q429 0 429 164q0 72 -95 103q-21 6 -112 6z" />
    <glyph glyph-name="four" unicode="4" horiz-adv-x="1000" 
d="M579 919l262 37l6 -39q107 326 247 633l242 -1q-159 -360 -432 -1180l-303 -37q112 297 160 374l-581 -60q220 454 457 869h250q-167 -315 -308 -596z" />
    <glyph glyph-name="five" unicode="5" horiz-adv-x="1050" 
d="M592 1522h87q22 0 148 7q206 10 508 22l-92 -281h-66q-324 0 -506 -25l63 -36q-20 -42 -39 -96q-4 -17 -17 -52q181 -41 293 -79q115 -76 118 -224q0 -29 -8 -65q-43 -214 -364 -339q-127 -50 -340 -64l-297 -20q22 44 79 162q14 33 47 112q419 12 496 45q132 48 132 129
q0 72 -135 93q-31 16 -103 33l-306 19q125 340 302 659z" />
    <glyph glyph-name="six" unicode="6" horiz-adv-x="1000" 
d="M699 899q-94 0 -112 -6q-101 -27 -169 -103q-31 -66 -31 -111q0 -66 54 -99q28 -17 82 -24q128 0 226 41q45 19 91 71q41 47 41 120q0 39 -54 72q-46 29 -91 33q-6 0 -18.5 3t-18.5 3zM409 1233q156 217 445 297q73 13 162 20q98 -14 175 -44q45 -18 62 -39l-98 -214
q0 46 -157 89q-159 -9 -310 -98q-127 -78 -162 -185q72 35 155 54q57 10 105 10q107 0 179 -43q38 -23 99 -78q21 -97 21 -172q-10 -251 -205 -392q-182 -125 -450 -126q-260 40 -260 300q0 190 106 414q55 112 133 207z" />
    <glyph glyph-name="seven" unicode="7" horiz-adv-x="950" 
d="M613 1051q43 41 113 106q110 102 168 166q-37 -3 -190 -19l-201 -19q-51 -5 -159 -18l71 240q166 13 397 26q138 8 446 18l-74 -213q-69 -121 -215 -273l58 2l-63 -176l-203 -17q-185 -160 -331 -492l-280 -62q176 393 290 551l-100 -4l72 176z" />
    <glyph glyph-name="eight" unicode="8" horiz-adv-x="1100" 
d="M794 889q-94 0 -114 -6q-118 -27 -187 -103q-41 -46 -41 -75q0 -27 27 -44q22 -22 129 -38q32 -4 46 -4q91 0 171 36q101 47 101 125q0 90 -95 103q-6 0 -18.5 3t-18.5 3zM963 1352q-139 -7 -231 -109q-40 -43 -40 -76q0 -48 79 -74q30 -10 89 -10q70 0 108 20
q11 6 39 19q91 42 91 121q0 66 -135 109zM1050 1550q11 -1 40 -4l29 -4q34 -3 66 -22q169 -69 169 -237q0 -185 -215 -321q41 -67 41 -142q0 -191 -195 -332q-175 -125 -450 -126h-11q-128 0 -227 43q-137 59 -137 178q0 111 114 237q57 65 171 142q-35 49 -35 110
q0 93 104 211q150 171 375 237q73 22 161 30z" />
    <glyph glyph-name="nine" unicode="9" horiz-adv-x="1050" 
d="M687 1003q84 0 113 4q119 33 187 106q32 35 32 79q0 23 -6 40q-36 69 -111 80q-149 0 -256 -81q-92 -72 -92 -119q0 -91 95 -105q6 0 18 -2t20 -2zM451 327q249 283 377 505q-68 -43 -219 -43q-106 0 -178 43q-42 24 -99 76q-32 102 -32 164q0 133 96 242q92 114 227 170
q153 65 332 66h3q143 0 222 -82q80 -83 80 -228q0 -160 -95 -314q-144 -223 -427 -628z" />
    <glyph glyph-name="colon" unicode=":" horiz-adv-x="650" 
d="M259 980l364 46q-24 -80 -79 -297l-22 -49q-120 0 -357 -42q46 181 94 342zM113 361l363 46q-27 -89 -79 -299l-23 -48q-119 0 -356 -41q45 181 95 342z" />
    <glyph glyph-name="semicolon" unicode=";" horiz-adv-x="500" 
d="M259 980l364 46q-24 -80 -79 -297l-22 -49q-120 0 -357 -42q46 181 94 342zM113 361l363 46q-27 -89 -186 -507l-20 -40q-90 -100 -320 -160q113 500 163 661z" />
    <glyph glyph-name="semicolon" unicode="&#x37e;" horiz-adv-x="500" 
d="M259 980l364 46q-24 -80 -79 -297l-22 -49q-120 0 -357 -42q46 181 94 342zM113 361l363 46q-27 -89 -186 -507l-20 -40q-90 -100 -320 -160q113 500 163 661z" />
    <glyph glyph-name="less" unicode="&#x3c;" 
d="M291 642l-3 -1l89 221l799 330l-79 -220l-535 -219l384 -209l-79 -219l-579 309z" />
    <glyph glyph-name="equal" unicode="=" horiz-adv-x="950" 
d="M337 1062l769 30l-79 -220l-779 -31zM237 714l769 30l-79 -219l-779 -31z" />
    <glyph glyph-name="greater" unicode="&#x3e;" 
d="M1173 875l3 1l-89 -221l-799 -330l79 220l535 219l-384 209l79 219l579 -309z" />
    <glyph glyph-name="question" unicode="?" horiz-adv-x="1100" 
d="M170 545q85 241 134 327q405 44 531 112q109 46 109 150q0 80 -107 119q-31 12 -101 12q-168 -3 -360 -95l-73 342q257 39 304 39q295 -2 441 -74q210 -107 210 -319q-38 -291 -401 -421q-183 -57 -301 -57l-34 -104zM113 361l363 46q-27 -89 -79 -299l-11 -2
q-160 -31 -368 -87q45 181 95 342z" />
    <glyph glyph-name="at" unicode="@" horiz-adv-x="1550" 
d="M1201 305q-195 -206 -499 -206q-246 0 -384 170q-127 157 -127 408q0 54 6 115q32 268 235 463q209 198 476 198q235 0 367 -147q58 -65 130 -179q37 -106 37 -190q0 -202 -133 -321q-87 -81 -259 -81h-14q-37 0 -100 -7q-76 -10 -114 -10q-207 0 -207 168q0 32 12 87
q21 104 84 175q73 81 174 81q56 -7 69 -11q76 -23 76 -134q0 -55 -24 -157q129 0 129 93q0 21 7.5 64.5t7.5 66.5q0 37 -22 57q-71 147 -243 147q-174 0 -290 -112q-110 -107 -136 -284q-6 -41 -6 -69q0 -132 77 -227q82 -100 212 -100q80 0 117 10q50 12 98 61z" />
    <glyph glyph-name="A" unicode="A" 
d="M958 1230q-52 -72 -215 -348l-90 -152l203 4l46 -36q58 126 58 463q0 51 -2 69zM855 509l-304 -15q-93 -149 -171 -388l-379 -93q16 62 148 328l91 185q129 262 405 645q151 212 299 375q87 3 258 12l9 -128q9 -145 9 -279q0 -263 -39 -490q-13 -39 -60 -326
q-19 -119 -38 -194l-379 -92q40 129 151 460z" />
    <glyph glyph-name="B" unicode="B" 
d="M1104 1134q0 80 -107 119q-31 12 -101 12h-26q-62 -3 -168 -32l72 -37q-36 -63 -75 -157q-3 -7 -40 -108l86 3q134 3 226 39q133 52 133 161zM896 556q0 81 -106 119q-32 12 -102 12h-26q-6 0 -17 2t-15 2q-13 0 -46 -11l-20 -62q-30 -60 -73 -157q-7 -18 -39 -107l86 1
q132 4 224 40q134 52 134 161zM1153 755q58 -110 58 -154q0 -32 -9 -78q-66 -339 -428 -420q-15 -2 -255 -28l-237 -26q-130 -15 -244 -30q70 270 167 557q60 181 189 463q26 56 75 152q-42 -13 -73 -21l-73 342q257 39 444 39q43 0 97 -5q148 -11 170 -15q78 -12 174 -54
q210 -87 210 -299q0 -31 -9 -77q-40 -209 -256 -346z" />
    <glyph glyph-name="C" unicode="C" horiz-adv-x="1350" 
d="M1290 252q-209 -233 -535 -233q-264 0 -412 192q-136 178 -136 462q0 61 7 130q34 304 252 524q223 224 510 224q434 0 614 -311l-378 -192q-77 166 -260 166q-187 0 -312 -127q-118 -121 -146 -321q-7 -46 -7 -78q0 -150 84 -257q88 -113 227 -113q151 0 265 122z" />
    <glyph glyph-name="D" unicode="D" 
d="M639 931l-196 -533q249 58 459 273q169 176 169 365q0 191 -73 217q-82 29 -134 29h-4q-138 -6 -218 -29l112 -57q-15 -26 -75 -157q-11 -32 -40 -108zM429 92l-75 -23q-178 -24 -336 -32q24 71 132 387q53 157 163 468q47 127 153 328q-33 -21 -90 -50l-73 342
q257 39 444 39q43 0 97 -5q148 -11 170 -15q78 -12 174 -54q210 -87 210 -299q0 -40 -9 -77q-85 -730 -960 -1009z" />
    <glyph glyph-name="E" unicode="E" horiz-adv-x="1000" 
d="M1395 1551l-92 -291h-116q-323 0 -506 -15l63 -36q-15 -33 -74 -173q-16 -36 -36 -85l431 16l-91 -261l-425 -15q-46 -136 -102 -346q174 10 520 26l-95 -289q-90 1 -156 1h-59q-220 0 -647 -70v3q0 14 53 202q62 217 111 355q82 229 187 463q40 88 90 183
q-106 -12 -198 -23l88 300q208 16 497 33q172 10 557 22z" />
    <glyph glyph-name="F" unicode="F" horiz-adv-x="1000" 
d="M375 66q-165 -17 -375 -53v3q0 14 53 202q62 217 111 355q82 229 187 463q40 88 90 183q-106 -12 -198 -23l88 300q208 16 497 33q172 10 557 22l-92 -291h-116q-323 0 -506 -15l63 -36q-15 -33 -74 -173q-16 -36 -36 -85l431 16l-91 -261l-425 -15q-23 -73 -37 -115
q-91 -260 -127 -510z" />
    <glyph glyph-name="G" unicode="G" horiz-adv-x="1450" 
d="M973 440l-1 -1l17 44q-7 -23 -13 -45zM973 50q-105 -32 -225 -32q-264 0 -412 192q-136 178 -136 462q0 61 7 130q34 304 252 524q223 224 510 224q434 0 614 -311l-378 -192q-77 166 -260 166q-187 0 -312 -127q-118 -121 -146 -321q-7 -46 -7 -78q0 -150 84 -257
q88 -113 227 -113q150 0 263 120l91 286l352 41q-64 -184 -91 -325q-42 -145 -64 -236l-36 -143q-125 -19 -335 -42q0 14 2 32z" />
    <glyph glyph-name="H" unicode="H" horiz-adv-x="1250" 
d="M1630 1550q-134 -243 -282 -579q-53 -121 -157 -463q-28 -92 -109 -368l-379 -92q70 230 151 460q7 21 47 129l-388 -44l-26 -85q-31 -104 -108 -403l-379 -93q65 240 149 496q65 194 189 463q95 206 289 553l38 4q114 13 262 22q-105 -191 -282 -579q-4 -9 -33 -82
l347 44l36 -69q123 283 334 660l41 4q113 13 260 22z" />
    <glyph glyph-name="I" unicode="I" horiz-adv-x="950" 
d="M298 300l34 114q12 39 51 159q60 180 189 463q32 74 101 209q-109 -18 -331 -49l88 300q157 14 395 33q249 19 437 22l-92 -291q-192 0 -304 -4l87 -47q-30 -58 -76 -173q-57 -141 -158 -463q-36 -119 -69 -247q32 2 111 6l155 6l-92 -292q-234 0 -305 -4
q-115 -8 -523 -61l88 301l100 10q43 3 114 8z" />
    <glyph glyph-name="J" unicode="J" horiz-adv-x="1150" 
d="M-25 181l328 75q0 -62 36 -106t96 -44q122 12 205 134q49 69 138 293q64 158 125 318q94 217 184 394q-109 -18 -330 -49l88 300q156 14 395 33q248 19 437 22l-92 -291q-193 0 -305 -4l86 -47q-39 -81 -75 -173q-64 -159 -199 -565q-130 -391 -324 -554
q-152 -130 -399 -130q-263 0 -358 219q-26 59 -36 175z" />
    <glyph glyph-name="K" unicode="K" 
d="M1083 141l-379 -92q14 65 14 132q0 125 -47 237q-56 137 -157 176l-26 -85q-31 -104 -108 -403l-379 -93q65 240 149 496q65 194 189 463q95 206 289 553l38 4q114 13 262 22q-105 -191 -282 -579q-4 -9 -33 -82q279 117 535 392q113 122 182 243l41 4q113 13 260 22
q-144 -328 -492 -615q-177 -147 -375 -219q128 -65 227 -208q104 -151 104 -289q0 -37 -12 -79z" />
    <glyph glyph-name="L" unicode="L" horiz-adv-x="1000" 
d="M634 951q-10 -36 -52 -171l-83 -261q-33 -108 -52 -174q174 10 520 26l-95 -289q-90 1 -156 1h-59q-220 0 -647 -70v3q0 14 53 202q62 219 111 355q82 230 187 463q17 40 63 145l88 206q36 85 59 125l63 6q14 -1 30 -1q44 0 109 9l94 15q-12 -22 -64 -154l-141 -357
q-4 -17 -28 -79z" />
    <glyph glyph-name="M" unicode="M" horiz-adv-x="1900" 
d="M2104 1603l-147 -642q-6 -24 -52 -221l-67 -292q-41 -173 -71 -342l-458 -125q49 181 151 496q31 94 102 332q33 111 99 292q-127 -45 -388 -486q-98 -165 -190 -474l-379 -92q4 21 4 65q0 215 -53 570q-20 140 -35 140l-132 -315q-90 -214 -108 -403l-379 -93
q66 244 149 496q64 191 189 463q54 120 152 301q6 18 6 29q0 33 -26 104q-32 92 -36 106l367 83q66 -221 116 -408q72 -267 78 -457q194 404 471 614q104 91 213 150q83 43 178 64q124 29 151 34q52 8 95 11z" />
    <glyph glyph-name="N" unicode="N" 
d="M434 1517l367 83q109 -434 156 -813q7 0 46 93l40 97q64 153 286 553l41 4q113 13 260 22q-134 -243 -282 -579q-53 -121 -157 -463q-28 -92 -109 -368l-379 -92q4 21 4 65q0 215 -53 570q-20 140 -35 140l-132 -315q-90 -214 -108 -403l-379 -93q66 244 149 496
q64 191 189 463q54 120 152 301q6 18 6 29q0 33 -26 104q-32 92 -36 106z" />
    <glyph glyph-name="O" unicode="O" horiz-adv-x="1400" 
d="M1617 1240l-86 -57q42 -121 42 -207q0 -62 -19 -173q-60 -350 -260 -557q-219 -227 -559 -227q-278 0 -434 192q-144 178 -144 462q0 61 7 130q36 304 266 524q236 224 539 224q458 0 648 -311zM1218 766q8 43 8 69q0 116 -70 178l62 35q-81 166 -275 166
q-197 0 -329 -127q-124 -121 -154 -321q-7 -46 -7 -78q0 -150 88 -257q93 -113 240 -113q177 0 297 139q107 124 140 309z" />
    <glyph glyph-name="P" unicode="P" 
d="M1084 1134q0 80 -107 119q-31 12 -101 12h-26q-62 -3 -168 -32l72 -37q-36 -63 -75 -157q-3 -7 -40 -108l86 3q134 3 226 39q133 52 133 161zM556 680l-34 -104q-35 -112 -125 -468l-11 -2q-160 -31 -368 -87q70 270 167 557q60 181 189 463q26 56 75 152
q-42 -13 -73 -21l-73 342q257 39 444 39q43 0 97 -5q148 -11 170 -15q78 -12 174 -54q210 -87 210 -299q0 -31 -9 -77q-49 -254 -392 -364q-183 -57 -441 -57z" />
    <glyph glyph-name="Q" unicode="Q" horiz-adv-x="1550" 
d="M1098 76q-142 -57 -313 -57q-278 0 -434 192q-144 178 -144 462q0 61 7 130q36 304 266 524q236 224 539 224q458 0 648 -311l-86 -57q42 -121 42 -207q0 -62 -19 -173q-58 -326 -236 -530q124 -171 187 -277l-345 -125q-46 93 -99 179q-9 15 -13 26zM1171 513
q69 102 97 253q8 42 8 69q0 116 -70 178l62 35q-81 166 -275 166q-197 0 -329 -127q-124 -121 -154 -321q-7 -46 -7 -78q0 -150 88 -257q93 -113 240 -113q49 0 93 11q-29 39 -111 137l-109 115l407 1q30 -32 60 -69z" />
    <glyph glyph-name="R" unicode="R" horiz-adv-x="1250" 
d="M1389 1101q-63 -334 -428 -418q234 -255 389 -513l-345 -125q-149 303 -398 593l-51 42l-34 -104q-35 -112 -125 -468l-11 -2q-160 -31 -368 -87q70 270 167 557q60 181 189 463q26 56 75 152q-42 -13 -73 -21l-73 342q257 39 444 39q43 0 97 -5q148 -11 170 -15
q78 -12 174 -54q210 -87 210 -299q0 -30 -9 -77zM1084 1134q0 80 -107 119q-31 12 -101 12h-26q-62 -3 -168 -32l72 -37q-36 -63 -75 -157q-3 -7 -40 -108l86 3q134 3 226 39q133 52 133 161z" />
    <glyph glyph-name="S" unicode="S" horiz-adv-x="800" 
d="M950 1268q-82 -3 -141 -16q-148 -34 -210 -120q-21 -30 -21 -62q0 -55 57 -137q76 -110 88 -136q70 -163 70 -255v-24q-21 -227 -260 -385q-131 -88 -420 -160l-70 373q109 14 197 44q207 71 207 190v13q0 60 -38 135q-21 31 -74 115q-94 148 -94 257q0 233 174 335
q134 78 403 145z" />
    <glyph glyph-name="T" unicode="T" horiz-adv-x="1100" 
d="M1422 1551l-92 -291h-120q-176 0 -305 -4l88 -47q-97 -184 -235 -636q-51 -172 -125 -467l-11 -3q-134 -25 -368 -90q73 280 168 560q58 174 190 463q31 72 100 209q-189 -18 -432 -49l89 300q217 16 496 33q171 10 557 22z" />
    <glyph glyph-name="U" unicode="U" horiz-adv-x="1300" 
d="M1597 1551q-39 -94 -133.5 -398.5t-145.5 -449.5q-142 -401 -324 -555q-154 -129 -400 -129q-124 0 -246 87q-175 128 -175 375q0 103 30 222q95 372 299 809l328 39q-109 -262 -141 -342q-122 -309 -170 -506q-17 -74 -17 -145q0 -220 158 -220q180 0 316 365l315 848
h306z" />
    <glyph glyph-name="V" unicode="V" 
d="M676 102l-378 -92q14 35 29 515q11 420 11 782q0 128 -4 155l366 83q6 -20 6 -90q0 -230 -66 -876q124 226 277 468q200 314 312 428l41 4q113 13 260 22q-95 -114 -207 -316q-61 -111 -181 -332l-219 -388q-148 -251 -247 -363z" />
    <glyph glyph-name="W" unicode="W" horiz-adv-x="1800" 
d="M992 698q-115 -209 -159 -283q-98 -162 -187 -263l-378 -92q14 35 29 515q11 420 11 782q0 128 -4 155l366 83q6 -20 6 -90q0 -230 -66 -876q98 179 256 427q73 118 135 206q0 231 -3 250l365 83q7 -20 7 -90q0 -262 -67 -876q184 331 417 670q109 160 173 226l39 4
q114 13 262 22q-88 -102 -200 -304q-57 -107 -175 -321l-224 -399q-153 -260 -255 -375l-379 -92q10 28 21 345q6 160 10 293z" />
    <glyph glyph-name="X" unicode="X" horiz-adv-x="1250" 
d="M904 1114q156 169 396 411l41 4q113 13 260 22q-62 -75 -166 -193l-468 -539q85 -427 86 -678l-379 -92q4 21 4 62q0 126 -21 345l-307 -350l-379 -93q322 427 637 777q-9 34 -18 34q0 89 -127 500l-58 188l367 83q60 -145 132 -481z" />
    <glyph glyph-name="Y" unicode="Y" horiz-adv-x="1100" 
d="M844 721q-40 -135 -161 -615l-11 -3q-134 -25 -368 -90q14 55 121 382l105 326q-32 104 -66 298q-45 256 -55 302q-27 122 -60 187h310q19 -62 40 -210l48 -314q33 55 197 318q96 155 159 210l332 46q-109 -102 -405 -552q-122 -184 -186 -285z" />
    <glyph glyph-name="Z" unicode="Z" horiz-adv-x="1100" 
d="M579 926q54 51 128 120q151 140 223 220q-46 -4 -237 -23l-252 -24q-64 -7 -198 -23l88 300q208 16 497 33q172 10 557 22l-92 -291q-86 -126 -269 -317l72 3l-79 -220l-216 -8l-154 -155q-124 -123 -210 -218q174 10 630 46l-95 -289q-150 -9 -385 -19q-160 0 -587 -70
q26 83 52 172l46 153q26 90 152 238q44 53 113 125l-125 -5l89 220z" />
    <glyph glyph-name="bracketleft" unicode="[" horiz-adv-x="850" 
d="M549 711q-27 -90 -102 -366l350 36l-125 -309q-150 -9 -662 -59v3q0 14 128 380t223 640q40 88 178 483q100 3 299 10l327 22l-92 -291h-116q-93 0 -276 -15l63 -36q-94 -239 -195 -498z" />
    <glyph glyph-name="backslash" unicode="\" horiz-adv-x="1250" 
d="M904 1114l63 -295q85 -427 86 -678l-379 -92q4 21 4 62q0 126 -21 345l-49 334q-18 123 -145 534l-58 188l367 83q60 -145 132 -481z" />
    <glyph glyph-name="bracketright" unicode="]" horiz-adv-x="850" 
d="M626 853q27 90 102 366l-350 -36l125 309q150 9 662 59v-3q0 -14 -128 -380t-223 -640q-40 -88 -178 -483q-100 -3 -299 -10l-327 -22l92 291h116q93 0 276 15l-63 36q94 239 195 498z" />
    <glyph glyph-name="asciicircum" unicode="^" horiz-adv-x="900" 
d="M580 1594q90 196 154 330q212 112 384 223l386 -266q-44 -144 -84 -281l-345 254q-198 -120 -495 -260z" />
    <glyph glyph-name="underscore" unicode="_" horiz-adv-x="1300" 
d="M-10 -37q43 4 329 11l333 9q199 7 643 17l-95 -289l-558 -3q-290 -1 -767 -70q76 188 115 325z" />
    <glyph glyph-name="grave" unicode="`" 
d="M1276 1600l-133 28q-348 80 -523 90q70 232 115 391l52 13q50 0 229 -92q328 -174 358 -186q-44 -122 -98 -244z" />
    <glyph glyph-name="a" unicode="a" horiz-adv-x="956" 
d="M766 1294q-41 -58 -172 -278l-72 -122l163 3l37 -29q46 101 46 371q0 41 -2 55zM684 717l-243 -12q-75 -119 -137 -310l-303 -75q13 50 118 263l73 148q103 209 324 516q121 169 239 300q70 2 207 9l7 -102q7 -116 7 -223q0 -211 -31 -392q-11 -31 -48 -261
q-15 -95 -31 -155l-303 -74q32 103 121 368z" />
    <glyph glyph-name="b" unicode="b" horiz-adv-x="924" 
d="M891 1217q0 64 -85 95q-25 10 -81 10h-21q-50 -2 -134 -26l57 -29q-29 -51 -60 -126q-2 -5 -32 -86l69 2q107 3 181 31q106 42 106 129zM725 755q0 65 -85 95q-26 10 -82 10h-20q-5 0 -14 1.5t-12 1.5q-10 0 -37 -9l-16 -50q-24 -48 -58 -125q-6 -15 -31 -86l68 1
q106 3 180 32q107 42 107 129zM930 914q47 -88 47 -123q0 -26 -7 -63q-53 -271 -343 -336q-12 -1 -204 -22l-189 -21q-104 -12 -196 -24q56 216 134 446q48 145 151 370q21 45 60 122q-33 -11 -58 -17l-59 274q206 31 356 31q34 0 77 -4q119 -9 136 -12q63 -10 139 -43
q168 -70 168 -240q0 -24 -7 -61q-32 -167 -205 -277z" />
    <glyph glyph-name="c" unicode="c" horiz-adv-x="1073" 
d="M1073 512q-167 -187 -428 -187q-211 0 -329 154q-109 142 -109 369q0 49 5 104q27 244 201 420q179 179 409 179q347 0 491 -249l-302 -154q-62 133 -209 133q-149 0 -249 -101q-94 -97 -117 -257q-5 -37 -5 -63q0 -120 67 -205q70 -91 181 -91q121 0 213 98z" />
    <glyph glyph-name="d" unicode="d" horiz-adv-x="924" 
d="M515 1055l-157 -427q200 47 368 219q135 141 135 292q0 153 -59 173q-65 24 -107 24h-3q-110 -5 -174 -24l89 -45q-12 -21 -60 -126q-9 -25 -32 -86zM347 384l-60 -19q-142 -19 -269 -25q20 56 106 309q42 126 130 375q38 101 123 262q-27 -17 -72 -40l-59 274
q206 31 356 31q34 0 77 -4q119 -9 136 -12q63 -10 139 -43q168 -70 168 -240q0 -32 -7 -61q-68 -584 -768 -807z" />
    <glyph glyph-name="e" unicode="e" horiz-adv-x="723" 
d="M1118 1551l-74 -233h-92q-259 0 -405 -12l50 -29q-12 -26 -59 -138q-13 -29 -29 -68l345 13l-73 -209l-340 -12q-37 -109 -81 -277q139 8 416 21l-76 -231h-172q-176 0 -518 -56v3q0 11 42 161q50 174 89 284q66 184 150 371q32 70 72 146q-85 -9 -159 -18l71 240
q166 13 397 26q138 8 446 18z" />
    <glyph glyph-name="f" unicode="f" horiz-adv-x="723" 
d="M300 363q-132 -14 -300 -43v3q0 11 42 161q50 174 89 284q66 184 150 371q32 70 72 146q-85 -9 -159 -18l71 240q166 13 397 26q138 8 446 18l-74 -233h-92q-259 0 -405 -12l50 -29q-12 -26 -59 -138q-13 -29 -29 -68l345 13l-73 -209l-340 -12q-18 -59 -29 -92
q-73 -208 -102 -408z" />
    <glyph glyph-name="g" unicode="g" horiz-adv-x="1173" 
d="M818 662l-1 -1l14 35l-10 -36zM818 350q-83 -26 -180 -26q-211 0 -329 154q-109 142 -109 370q0 48 6 104q27 243 201 419q179 179 408 179q347 0 491 -249l-302 -153q-62 132 -208 132q-150 0 -250 -101q-94 -97 -116 -257q-6 -37 -6 -62q0 -120 67 -206q71 -90 182 -90
q120 0 211 96l72 228l282 33q-52 -147 -73 -260q-34 -116 -51 -189l-29 -114q-100 -15 -268 -34q0 12 1 26z" />
    <glyph glyph-name="h" unicode="h" horiz-adv-x="924" 
d="M1304 1550q-107 -194 -226 -463q-42 -97 -125 -371q-23 -73 -87 -294l-304 -74q56 184 121 368q6 17 38 104l-311 -36l-20 -68q-25 -83 -87 -322l-303 -74q52 192 119 396q52 156 151 371q76 165 232 442l30 3q91 11 210 18q-84 -153 -226 -463q-3 -7 -26 -66l277 35
l29 -55q98 227 267 528l33 3q90 11 208 18z" />
    <glyph glyph-name="i" unicode="i" horiz-adv-x="697" 
d="M237 550l28 91q9 31 40 127q48 144 152 371q25 59 80 167q-87 -14 -264 -39l70 240q126 11 316 26q199 15 350 18l-74 -233q-154 0 -243 -3l69 -38q-24 -46 -60 -138q-46 -113 -127 -371q-29 -95 -55 -197q26 1 89 5l124 4l-74 -233q-187 0 -244 -3q-92 -7 -418 -49
l70 241l80 8q35 2 91 6z" />
    <glyph glyph-name="j" unicode="j" horiz-adv-x="810" 
d="M-25 455l262 60q0 -50 29 -85t77 -35q98 9 164 107q39 55 110 234q52 127 100 255q76 173 148 315q-88 -14 -264 -39l70 240q125 11 316 26q198 15 350 18l-74 -233q-154 0 -244 -3l69 -38q-31 -65 -60 -138q-51 -127 -159 -452q-104 -313 -260 -443q-121 -104 -319 -104
q-210 0 -286 175q-21 47 -29 140z" />
    <glyph glyph-name="k" unicode="k" horiz-adv-x="874" 
d="M866 423l-303 -74q11 52 11 106q0 100 -37 189q-45 110 -126 141l-21 -68q-24 -83 -86 -322l-303 -75q52 192 119 397q52 155 151 371q76 164 231 442l31 3q91 11 209 18q-84 -153 -225 -463q-3 -8 -27 -66q224 94 428 314q91 97 146 194l33 3q90 11 208 18
q-115 -263 -394 -492q-141 -118 -300 -175q103 -52 182 -167q83 -121 83 -231q0 -30 -10 -63z" />
    <glyph glyph-name="l" unicode="l" horiz-adv-x="809" 
d="M509 1071q-8 -29 -41 -137l-67 -209q-26 -86 -41 -139q139 8 416 21l-76 -231h-172q-176 0 -518 -56v3q0 11 42 161q50 176 89 284q66 184 150 371q13 32 50 116l71 165q28 68 47 100l50 4h24q35 0 87 7l76 12q-10 -18 -52 -123l-112 -286q-4 -14 -23 -63z" />
    <glyph glyph-name="m" unicode="m" horiz-adv-x="1479" 
d="M1683 1592l-117 -513q-5 -19 -42 -177l-54 -234q-32 -138 -56 -273l-367 -100q39 145 121 397q25 75 82 265q26 89 79 234q-102 -36 -311 -389q-78 -132 -152 -379l-303 -74q3 17 3 52q0 172 -42 456q-16 112 -28 112l-106 -252q-72 -171 -86 -322l-303 -75
q53 196 119 397q51 153 151 371q43 96 122 240q5 15 5 24q0 26 -21 83q-26 73 -29 85l294 66q52 -177 92 -326q58 -214 63 -366q155 323 377 491q83 73 170 120q66 35 142 51q100 24 121 28q42 6 76 8z" />
    <glyph glyph-name="n" unicode="n" horiz-adv-x="874" 
d="M347 1524l294 66q87 -347 125 -650q5 0 36 74l32 78q52 122 229 442l33 3q90 11 208 18q-107 -195 -226 -463q-42 -97 -125 -371q-23 -73 -87 -294l-304 -74q4 17 4 52q0 172 -43 456q-16 112 -28 112l-105 -252q-72 -171 -87 -322l-303 -75q53 196 119 397
q51 153 151 371q44 96 122 240q5 15 5 24q0 26 -21 83q-26 73 -29 85z" />
    <glyph glyph-name="o" unicode="o" horiz-adv-x="1108" 
d="M1325 1302l-69 -46q33 -96 33 -165q0 -50 -15 -139q-48 -280 -208 -445q-175 -182 -447 -182q-222 0 -347 154q-115 142 -115 369q0 49 5 104q29 244 213 420q189 179 431 179q367 0 519 -249zM1005 923q7 34 7 55q0 93 -56 142l49 28q-64 133 -220 133q-157 0 -263 -101
q-99 -97 -123 -257q-6 -37 -6 -63q0 -120 71 -205q74 -91 192 -91q141 0 237 112q86 99 112 247z" />
    <glyph glyph-name="p" unicode="p" horiz-adv-x="924" 
d="M871 1217q0 64 -85 95q-25 10 -81 10h-21q-50 -2 -134 -26l57 -29q-29 -51 -60 -126q-2 -5 -32 -86l69 2q107 3 181 31q106 42 106 129zM449 854l-27 -83q-28 -90 -100 -375l-9 -1q-128 -25 -295 -70q56 216 134 446q48 145 151 370q21 45 60 122q-33 -11 -58 -17
l-59 274q206 31 356 31q34 0 77 -4q119 -9 136 -12q63 -10 139 -43q168 -70 168 -240q0 -24 -7 -61q-39 -203 -313 -291q-147 -46 -353 -46z" />
    <glyph glyph-name="q" unicode="q" horiz-adv-x="1258" 
d="M919 371q-113 -46 -250 -46q-222 0 -347 154q-115 142 -115 369q0 49 5 104q29 244 213 420q189 179 431 179q367 0 519 -249l-69 -46q33 -96 33 -165q0 -50 -15 -139q-46 -260 -189 -424q100 -136 150 -221l-276 -100q-37 74 -79 143q-7 12 -11 21zM978 720
q55 82 77 203q7 33 7 55q0 93 -56 142l49 28q-64 133 -220 133q-157 0 -263 -101q-99 -97 -123 -257q-6 -37 -6 -63q0 -120 71 -205q74 -91 192 -91q39 0 74 9q-23 31 -89 110l-87 92l326 1q24 -26 48 -56z" />
    <glyph glyph-name="r" unicode="r" horiz-adv-x="974" 
d="M1115 1191q-50 -267 -342 -335q187 -204 311 -410l-276 -100q-119 242 -318 474l-41 34l-27 -83q-28 -90 -100 -375l-9 -1q-128 -25 -295 -70q56 216 134 446q48 145 151 370q21 45 60 122q-33 -11 -58 -17l-59 274q206 31 356 31q34 0 77 -4q119 -9 136 -12
q63 -10 139 -43q168 -70 168 -240q0 -24 -7 -61zM871 1217q0 64 -85 95q-25 10 -81 10h-21q-50 -2 -134 -26l57 -29q-29 -51 -60 -126q-2 -5 -32 -86l69 2q107 3 181 31q106 42 106 129z" />
    <glyph glyph-name="s" unicode="s" horiz-adv-x="619" 
d="M769 1324q-66 -2 -113 -12q-118 -28 -168 -96q-17 -24 -17 -50q0 -44 46 -110q61 -88 70 -108q56 -131 56 -204v-20q-16 -181 -208 -308q-104 -70 -336 -128l-56 299q88 11 158 35q166 57 166 152v10q0 48 -31 108q-17 25 -59 92q-75 119 -75 206q0 186 139 268
q107 62 322 116z" />
    <glyph glyph-name="t" unicode="t" horiz-adv-x="866" 
d="M1189 1551l-74 -233h-96q-141 0 -244 -3l70 -38q-77 -147 -188 -509q-40 -137 -100 -373l-8 -3q-108 -20 -295 -72q59 224 135 448q46 140 152 371q24 57 80 167q-152 -14 -346 -39l71 240q174 13 397 26q137 8 446 18z" />
    <glyph glyph-name="u" unicode="u" horiz-adv-x="1015" 
d="M1313 1551q-32 -75 -107.5 -319t-116.5 -360q-113 -320 -259 -444q-123 -103 -320 -103q-99 0 -197 70q-140 102 -140 300q0 82 24 177q76 298 240 648l262 31q-87 -210 -113 -274q-97 -247 -136 -405q-13 -59 -13 -116q0 -176 126 -176q144 0 253 292l252 679h245z" />
    <glyph glyph-name="v" unicode="v" horiz-adv-x="954" 
d="M601 392l-303 -74q12 28 24 412q8 336 8 626q0 102 -3 124l293 66q5 -16 5 -72q0 -184 -53 -701q99 181 222 375q160 251 249 342l33 3q90 11 208 18q-76 -91 -166 -253q-48 -89 -144 -266l-176 -310q-118 -201 -197 -290z" />
    <glyph glyph-name="w" unicode="w" horiz-adv-x="1415" 
d="M848 868q-92 -167 -128 -226q-78 -130 -149 -210l-303 -74q12 28 24 412q8 336 8 626q0 102 -3 124l293 66q5 -16 5 -72q0 -184 -53 -701q78 143 205 342q58 94 108 165q0 184 -3 200l292 66q6 -16 6 -72q0 -210 -54 -701q148 265 334 536q87 128 138 181l32 3
q91 11 209 18q-70 -82 -160 -243q-45 -86 -140 -257l-179 -319q-122 -208 -204 -300l-303 -74q8 22 17 276q4 128 8 234z" />
    <glyph glyph-name="x" unicode="x" horiz-adv-x="924" 
d="M717 1201q125 135 317 329l33 3q90 11 208 18q-50 -60 -133 -155l-374 -431q68 -341 68 -542l-303 -74q3 17 3 50q0 101 -16 276l-246 -280l-303 -75q257 342 509 622q-7 27 -14 27q0 71 -102 400l-46 151l294 66q48 -116 105 -385z" />
    <glyph glyph-name="y" unicode="y" horiz-adv-x="874" 
d="M736 887q-32 -108 -129 -492l-8 -3q-108 -20 -295 -72q11 44 97 306l84 261q-26 83 -53 238q-36 205 -44 242q-21 97 -48 149h248q15 -49 32 -168l39 -251q26 44 157 255q77 124 127 168l266 36q-87 -81 -324 -441q-98 -147 -149 -228z" />
    <glyph glyph-name="z" unicode="z" horiz-adv-x="823" 
d="M463 1051q43 41 103 96q120 112 178 176q-37 -3 -190 -19l-201 -19q-51 -5 -159 -18l71 240q166 13 397 26q138 8 446 18l-74 -233q-69 -101 -215 -253l58 2l-63 -176l-173 -7l-123 -124q-100 -98 -168 -174q139 8 504 37l-76 -231q-120 -8 -308 -16q-128 0 -470 -56
q21 67 42 138l36 122q21 72 122 191q36 42 90 100l-100 -4l72 176z" />
    <glyph glyph-name="braceleft" unicode="{" horiz-adv-x="1000" 
d="M524 806q-5 -42 -5 -84q0 -351 322 -662l-271 -60q-343 348 -343 716q0 53 7 107q84 394 516 657l395 61q-580 -347 -621 -735z" />
    <glyph glyph-name="bar" unicode="|" horiz-adv-x="600" 
d="M319 -154l-11 -2q-160 -31 -368 -87q57 233 153 532t192 621q107 362 215 840q125 19 335 42q0 -119 -216 -910q-249 -832 -300 -1036z" />
    <glyph glyph-name="braceright" unicode="}" horiz-adv-x="1000" 
d="M621 735q5 42 5 84q0 351 -322 662l271 60q343 -348 343 -716q0 -53 -7 -107q-84 -394 -516 -657l-395 -61q580 347 621 735z" />
    <glyph glyph-name="asciitilde" unicode="~" 
d="M1450 1730q-82 -106 -190 -106q-151 20 -221 52q-144 64 -236 64q-128 0 -269 -130q51 185 87 311q77 82 160 92q110 0 281 -70q66 -36 227 -56q104 0 251 107q-42 -142 -90 -264z" />
    <glyph glyph-name="exclamdown" unicode="&#xa1;" horiz-adv-x="500" 
d="M701 1249l-363 -46q27 89 79 299l11 2q160 31 368 87q-45 -181 -95 -342zM18 19q30 205 177 709l97 306l352 31l-191 -625q-42 -175 -100 -379q-125 -19 -335 -42z" />
    <glyph glyph-name="cent" unicode="&#xa2;" horiz-adv-x="1073" 
d="M734 569q87 18 158 93l181 -150q-164 -184 -420 -187l-37 -113l-305 -55q7 25 49 142l36 101q-44 32 -80 79q-109 142 -109 369q0 49 5 104q27 244 201 420q165 165 374 178q8 22 17 44l273 16l-30 -92q174 -57 266 -216l-302 -154q-24 51 -59 82zM686 1263
q-75 -24 -133 -83q-94 -97 -117 -257q-5 -37 -5 -63q0 -113 59 -194l16 45q41 112 140 417q17 62 40 135z" />
    <glyph glyph-name="sterling" unicode="&#xa3;" horiz-adv-x="1350" 
d="M782 748l-73 -229q-33 -108 -52 -174q174 10 520 26l-95 -289q-90 1 -156 1h-59q-220 0 -817 -73l90 296q130 4 163 62q32 69 81 205q29 81 61 162l-237 -9l89 220l239 9q79 246 227 423q186 204 409 204q368 0 558 -311l-349 -152q-131 126 -235 126q-117 0 -199 -107
q-47 -83 -85 -170l204 8l-79 -220z" />
    <glyph glyph-name="currency" unicode="&#xa4;" horiz-adv-x="1300" 
d="M997 798q4 26 4 56q0 92 -54 143l50 28q-65 133 -223 133t-263 -103q-99 -98 -126 -257q-7 -39 -7 -65q0 -122 71 -207q77 -92 194 -92q143 0 242 115q86 99 112 249zM381 1266q-9 28 -18 58l-58 188l367 83q27 -65 56 -168q33 4 68 4q153 0 269 -43q64 65 135 137l41 4
q113 13 260 22q-62 -75 -166 -193l-81 -93q36 -39 65 -87l-70 -44q35 -101 35 -167q0 -50 -15 -142q-49 -280 -210 -448q-52 -54 -112 -92q6 -78 6 -144l-379 -92q4 21 4 62q0 37 -2 83q-115 5 -202 53l-124 -141l-379 -93q166 220 330 419q-62 121 -62 289q0 36 9 104
q27 246 216 426q8 8 17 15z" />
    <glyph glyph-name="yen" unicode="&#xa5;" horiz-adv-x="1100" 
d="M407 848q-16 74 -33 171q-45 256 -55 302q-27 122 -60 187h310q19 -62 40 -210l48 -314q33 55 197 318q96 155 159 210l332 46q-109 -102 -405 -552q-52 -78 -93 -141l179 7l-79 -220l-215 -9q-16 -57 -37 -139l251 10l-79 -219l-228 -9q-22 -83 -46 -180l-11 -3
q-134 -25 -368 -90q11 44 81 259l-207 -8l89 220l189 7l45 140l-243 -10l89 221z" />
    <glyph glyph-name="brokenbar" unicode="&#xa6;" horiz-adv-x="600" 
d="M579 748l-103 -341q-106 -357 -157 -561l-11 -2q-160 -31 -368 -87q57 233 173 604q54 162 119 374zM298 954q98 338 166 653l36 143q125 19 335 42q0 -119 -140 -665q-16 -51 -50 -160z" />
    <glyph glyph-name="section" unicode="&#xa7;" horiz-adv-x="900" 
d="M797 798q4 26 4 56q0 92 -54 143l50 28q-65 133 -223 133t-263 -103q-99 -98 -126 -257q-7 -39 -7 -65q0 -122 71 -207q77 -92 194 -92q143 0 242 115q86 99 112 249zM201 1284q20 228 171 337q134 95 403 177l132 -381q-55 -3 -100 -11q208 -54 312 -228l-70 -44
q35 -101 35 -167q0 -50 -15 -142q-49 -280 -210 -448q-81 -84 -183 -130q-65 -119 -186 -217q-131 -107 -420 -195l-70 456q47 7 90 18q-18 18 -35 39q-116 142 -116 373q0 36 9 104q27 246 216 426q18 17 37 33z" />
    <glyph glyph-name="dieresis" unicode="&#xa8;" 
d="M1185 1992l363 46q-27 -89 -79 -299l-23 -48q-119 0 -356 -41q45 181 95 342zM617 1992l363 46q-27 -89 -79 -299l-23 -48q-119 0 -356 -41q45 181 95 342z" />
    <glyph glyph-name="copyright" unicode="&#xa9;" 
d="M919 1482q-123 118 -294 118q-176 0 -300.5 -124.5t-124.5 -300.5t124.5 -300.5t300.5 -124.5t300.5 124.5t124.5 300.5q0 121 -59 218l-193 -93q-41 83 -138 83q-98 0 -164 -64q-62 -60 -77 -160q-4 -23 -4 -39q0 -75 44 -129q47 -56 120 -56q80 0 140 61l120 -94
q-110 -117 -283 -117q-139 0 -217 96q-72 89 -72 231q0 31 4 65q18 152 133 262q118 112 269 112q153 0 246 -69zM1100 1175q0 -197 -139 -336t-336 -139t-336 139t-139 336t139 336t336 139t336 -139t139 -336z" />
    <glyph glyph-name="ordfeminine" unicode="&#xaa;" horiz-adv-x="1650" 
d="M0 200v1100q0 200 200 200h1100q200 0 200 -200v-1100q0 -200 -200 -200h-1100q-200 0 -200 200zM1475 201v1099q0 175 -175 175h-1100q-174 0 -175 -175v-1100q1 -175 175 -175h1101q174 0 174 176z" />
    <glyph glyph-name="guillemotleft" unicode="&#xab;" horiz-adv-x="1700" 
d="M291 642l-3 -1l89 221l799 330l-79 -220l-535 -219l384 -209l-79 -219l-579 309zM851 642l-3 -1l89 221l799 330l-79 -220l-535 -219l384 -209l-79 -219l-579 309z" />
    <glyph glyph-name="logicalnot" unicode="&#xac;" horiz-adv-x="950" 
d="M-50 0l450 1550h50l-450 -1550h-50zM800 0l450 1550h50l-450 -1550h-50z" />
    <glyph glyph-name="registered" unicode="&#xae;" 
d="M771 1343q0 40 -53 59q-16 6 -51 6h-13q-31 -1 -84 -16l36 -18q-18 -32 -37 -79q-2 -3 -20 -54l43 2q67 1 113 19q66 26 66 81zM387 822q104 -72 238 -72q176 0 300.5 124.5t124.5 300.5t-124.5 300.5t-300.5 124.5q-128 0 -229 -66q119 17 207 17q21 0 48 -2
q74 -6 85 -8q39 -6 87 -27q105 -43 105 -149q0 -15 -4 -39q-32 -167 -214 -209q117 -127 194 -256l-172 -63q-75 152 -199 297l-26 21l-17 -52q-17 -56 -62 -234l-6 -1q-17 -3 -35 -7zM278 928q21 67 44 136q30 90 94 231q13 28 38 76q-21 -6 -37 -10l-34 164
q-31 -22 -58 -49q-125 -125 -125 -301q0 -140 78 -247zM324 807q-41 -10 -86 -22q11 42 23 84q-111 130 -111 306q0 197 139 336t336 139t336 -139t139 -336t-139 -336t-336 -139q-173 0 -301 107z" />
    <glyph glyph-name="macron" unicode="&#xaf;" horiz-adv-x="1650" 
d="M0 200v1100q0 200 200 200h1100q200 0 200 -200v-1100q0 -200 -200 -200h-1100q-200 0 -200 200zM1475 201v1099q0 175 -175 175h-1100q-174 0 -175 -175v-1100q1 -175 175 -175h1101q174 0 174 176z" />
    <glyph glyph-name="degree" unicode="&#xb0;" horiz-adv-x="674" 
d="M339 1372q-86 0 -147.5 -61t-61.5 -148t61 -147t148 -60t147 60t60 147t-60.5 148t-146.5 61zM339 1442q115 0 196 -81.5t81 -196.5q0 -114 -82 -196t-197 -82q-117 0 -197 81t-80 197t81.5 197t197.5 81z" />
    <glyph glyph-name="plusminus" unicode="&#xb1;" horiz-adv-x="1650" 
d="M0 200v1100q0 200 200 200h1100q200 0 200 -200v-1100q0 -200 -200 -200h-1100q-200 0 -200 200zM1475 201v1099q0 175 -175 175h-1100q-174 0 -175 -175v-1100q1 -175 175 -175h1101q174 0 174 176z" />
    <glyph glyph-name="uni00B2" unicode="&#xb2;" horiz-adv-x="1650" 
d="M0 200v1100q0 200 200 200h1100q200 0 200 -200v-1100q0 -200 -200 -200h-1100q-200 0 -200 200zM1475 201v1099q0 175 -175 175h-1100q-174 0 -175 -175v-1100q1 -175 175 -175h1101q174 0 174 176z" />
    <glyph glyph-name="uni00B3" unicode="&#xb3;" horiz-adv-x="1650" 
d="M0 200v1100q0 200 200 200h1100q200 0 200 -200v-1100q0 -200 -200 -200h-1100q-200 0 -200 200zM1475 201v1099q0 175 -175 175h-1100q-174 0 -175 -175v-1100q1 -175 175 -175h1101q174 0 174 176z" />
    <glyph glyph-name="acute" unicode="&#xb4;" 
d="M618 1864q422 166 747 246l25 -30q-60 -212 -105 -341q-335 -39 -720 -115l-45 -4q44 122 98 244z" />
    <glyph glyph-name="mu" unicode="&#xb5;" horiz-adv-x="1300" 
d="M394 679q-12 -62 -12 -121q0 -220 158 -220q180 0 316 365l315 848h306q-39 -94 -133.5 -398.5t-145.5 -449.5q-142 -401 -324 -555q-154 -129 -400 -129q-124 0 -246 87q-1 0 -1 1q-19 -70 -32 -122l-36 -143q-125 -19 -325 -42q0 115 101 464q14 52 76 245l103 307
q95 325 268 696l328 39q-109 -262 -141 -342q-82 -207 -130 -364l11 1q-24 -64 -56 -167z" />
    <glyph glyph-name="paragraph" unicode="&#xb6;" horiz-adv-x="1024" 
d="M929 1435v-70h-127v-1365h-82v1365h-166v-1365h-84v738q-174 8 -275.5 102.5t-101.5 245.5q0 157 107.5 253t285.5 96h443z" />
    <glyph glyph-name="periodcentered" unicode="&#xb7;" horiz-adv-x="650" 
d="M259 980l364 46q-24 -80 -79 -297l-22 -49q-120 0 -357 -42q46 181 94 342z" />
    <glyph glyph-name="periodcentered" unicode="&#x2219;" horiz-adv-x="650" 
d="M259 980l364 46q-24 -80 -79 -297l-22 -49q-120 0 -357 -42q46 181 94 342z" />
    <glyph glyph-name="cedilla" unicode="&#xb8;" horiz-adv-x="1500" 
d="M651 -243q-170 -33 -309 -57l82 129q93 148 93 242l127 27q223 55 299 79q7 -26 7 -60q0 -137 -141 -319q-75 -25 -158 -41z" />
    <glyph glyph-name="uni00B9" unicode="&#xb9;" horiz-adv-x="1650" 
d="M0 200v1100q0 200 200 200h1100q200 0 200 -200v-1100q0 -200 -200 -200h-1100q-200 0 -200 200zM1475 201v1099q0 175 -175 175h-1100q-174 0 -175 -175v-1100q1 -175 175 -175h1101q174 0 174 176z" />
    <glyph glyph-name="ordmasculine" unicode="&#xba;" horiz-adv-x="1650" 
d="M0 200v1100q0 200 200 200h1100q200 0 200 -200v-1100q0 -200 -200 -200h-1100q-200 0 -200 200zM1475 201v1099q0 175 -175 175h-1100q-174 0 -175 -175v-1100q1 -175 175 -175h1101q174 0 174 176z" />
    <glyph glyph-name="guillemotright" unicode="&#xbb;" horiz-adv-x="1700" 
d="M1733 875l3 1l-89 -221l-799 -330l79 220l535 219l-384 209l79 219l579 -309zM1173 875l3 1l-89 -221l-799 -330l79 220l535 219l-384 209l79 219l579 -309z" />
    <glyph glyph-name="onequarter" unicode="&#xbc;" horiz-adv-x="1650" 
d="M0 200v1100q0 200 200 200h1100q200 0 200 -200v-1100q0 -200 -200 -200h-1100q-200 0 -200 200zM1475 201v1099q0 175 -175 175h-1100q-174 0 -175 -175v-1100q1 -175 175 -175h1101q174 0 174 176z" />
    <glyph glyph-name="onehalf" unicode="&#xbd;" horiz-adv-x="1650" 
d="M0 200v1100q0 200 200 200h1100q200 0 200 -200v-1100q0 -200 -200 -200h-1100q-200 0 -200 200zM1475 201v1099q0 175 -175 175h-1100q-174 0 -175 -175v-1100q1 -175 175 -175h1101q174 0 174 176z" />
    <glyph glyph-name="threequarters" unicode="&#xbe;" horiz-adv-x="1650" 
d="M0 200v1100q0 200 200 200h1100q200 0 200 -200v-1100q0 -200 -200 -200h-1100q-200 0 -200 200zM1475 201v1099q0 175 -175 175h-1100q-174 0 -175 -175v-1100q1 -175 175 -175h1101q174 0 174 176z" />
    <glyph glyph-name="questiondown" unicode="&#xbf;" horiz-adv-x="1100" 
d="M1106 1025q-85 -241 -134 -327q-405 -44 -531 -112q-109 -46 -109 -150q0 -80 107 -119q31 -12 101 -12q168 3 360 95l73 -342q-257 -39 -304 -39q-295 2 -441 74q-210 107 -210 319q38 291 401 421q183 57 301 57l34 104zM1163 1209l-363 -46q27 89 79 299l11 2
q160 31 368 87q-45 -181 -95 -342z" />
    <glyph glyph-name="Agrave" unicode="&#xc0;" 
d="M958 1230q-52 -72 -215 -348l-90 -152l203 4l46 -36q58 126 58 463q0 51 -2 69zM855 509l-304 -15q-93 -149 -171 -388l-379 -93q16 62 148 328l91 185q129 262 405 645q151 212 299 375q87 3 258 12l9 -128q9 -145 9 -279q0 -263 -39 -490q-13 -39 -60 -326
q-19 -119 -38 -194l-379 -92q40 129 151 460zM1376 1600l-133 28q-348 80 -523 90q70 232 115 391l52 13q50 0 229 -92q328 -174 358 -186q-44 -122 -98 -244z" />
    <glyph glyph-name="Aacute" unicode="&#xc1;" 
d="M958 1230q-52 -72 -215 -348l-90 -152l203 4l46 -36q58 126 58 463q0 51 -2 69zM855 509l-304 -15q-93 -149 -171 -388l-379 -93q16 62 148 328l91 185q129 262 405 645q151 212 299 375q87 3 258 12l9 -128q9 -145 9 -279q0 -263 -39 -490q-13 -39 -60 -326
q-19 -119 -38 -194l-379 -92q40 129 151 460zM818 1864q422 166 747 246l25 -30q-60 -212 -105 -341q-335 -39 -720 -115l-45 -4q44 122 98 244z" />
    <glyph glyph-name="Acircumflex" unicode="&#xc2;" 
d="M958 1230q-52 -72 -215 -348l-90 -152l203 4l46 -36q58 126 58 463q0 51 -2 69zM855 509l-304 -15q-93 -149 -171 -388l-379 -93q16 62 148 328l91 185q129 262 405 645q151 212 299 375q87 3 258 12l9 -128q9 -145 9 -279q0 -263 -39 -490q-13 -39 -60 -326
q-19 -119 -38 -194l-379 -92q40 129 151 460zM680 1594q90 196 154 330q212 112 384 223l386 -266q-44 -144 -84 -281l-345 254q-198 -120 -495 -260z" />
    <glyph glyph-name="Atilde" unicode="&#xc3;" 
d="M958 1230q-52 -72 -215 -348l-90 -152l203 4l46 -36q58 126 58 463q0 51 -2 69zM855 509l-304 -15q-93 -149 -171 -388l-379 -93q16 62 148 328l91 185q129 262 405 645q151 212 299 375q87 3 258 12l9 -128q9 -145 9 -279q0 -263 -39 -490q-13 -39 -60 -326
q-19 -119 -38 -194l-379 -92q40 129 151 460zM1450 1730q-82 -106 -190 -106q-151 20 -221 52q-144 64 -236 64q-128 0 -269 -130q51 185 87 311q77 82 160 92q110 0 281 -70q66 -36 227 -56q104 0 251 107q-42 -142 -90 -264z" />
    <glyph glyph-name="Adieresis" unicode="&#xc4;" 
d="M958 1230q-52 -72 -215 -348l-90 -152l203 4l46 -36q58 126 58 463q0 51 -2 69zM855 509l-304 -15q-93 -149 -171 -388l-379 -93q16 62 148 328l91 185q129 262 405 645q151 212 299 375q87 3 258 12l9 -128q9 -145 9 -279q0 -263 -39 -490q-13 -39 -60 -326
q-19 -119 -38 -194l-379 -92q40 129 151 460zM1285 1992l363 46q-27 -89 -79 -299l-23 -48q-119 0 -356 -41q45 181 95 342zM717 1992l363 46q-27 -89 -79 -299l-23 -48q-119 0 -356 -41q45 181 95 342z" />
    <glyph glyph-name="Aring" unicode="&#xc5;" 
d="M958 1230q-52 -72 -215 -348l-90 -152l203 4l46 -36q58 126 58 463q0 51 -2 69zM855 509l-304 -15q-93 -149 -171 -388l-379 -93q16 62 148 328l91 185q129 262 405 645q151 212 299 375q87 3 258 12l9 -128q9 -145 9 -279q0 -263 -39 -490q-13 -39 -60 -326
q-19 -119 -38 -194l-379 -92q40 129 151 460zM1344 2063l-29 -19q14 -41 14 -70q0 -21 -6 -59q-21 -118 -88 -188q-74 -77 -189 -77q-94 0 -147 65q-49 60 -49 156q0 21 2 44q13 103 90 178q80 75 183 75q155 0 219 -105zM1149 1910q1 6 1 10q0 15 -9 24l8 4q-11 23 -37 23
t-44 -17q-17 -17 -21 -44q-1 -6 -1 -10q0 -20 12 -35q13 -15 32 -15q24 0 40 19q15 16 19 41z" />
    <glyph glyph-name="AE" unicode="&#xc6;" horiz-adv-x="1700" 
d="M958 1230q-52 -72 -215 -348l-90 -152l203 4l46 -36q58 126 58 463q0 51 -2 69zM718 52l-14 -3q29 94 96 295q27 91 52 165l-301 -15q-93 -149 -171 -388l-379 -93q16 62 148 328l91 185q129 262 405 645q151 212 299 375q87 3 258 12l4 -50q150 10 332 21q172 10 557 22
l-92 -291h-116q-323 0 -506 -15l63 -36q-15 -33 -74 -173q-16 -36 -36 -85l431 16l-91 -261l-425 -15q-46 -136 -102 -346q174 10 520 26l-95 -289q-90 1 -156 1h-59q-220 0 -647 -70v3q0 5 8 36z" />
    <glyph glyph-name="Ccedilla" unicode="&#xc7;" horiz-adv-x="1500" 
d="M515 43q-153 43 -254 168q-144 178 -144 462q0 61 7 130q36 304 266 524q236 224 539 224q458 0 648 -311l-399 -192q-81 166 -275 166q-197 0 -329 -127q-124 -121 -154 -321q-7 -46 -7 -78q0 -150 88 -257q93 -113 240 -113q159 0 280 122l239 -188
q-135 -143 -317 -198q-24 -115 -104 -256q-55 -135 -218 -181q-91 -17 -239 -27l82 329l45 4q45 43 66 102z" />
    <glyph glyph-name="Egrave" unicode="&#xc8;" horiz-adv-x="1000" 
d="M1395 1551l-92 -291h-116q-323 0 -506 -15l63 -36q-15 -33 -74 -173q-16 -36 -36 -85l431 16l-91 -261l-425 -15q-46 -136 -102 -346q174 10 520 26l-95 -289q-90 1 -156 1h-59q-220 0 -647 -70v3q0 14 53 202q62 217 111 355q82 229 187 463q40 88 90 183
q-106 -12 -198 -23l88 300q208 16 497 33q172 10 557 22zM1276 1600l-133 28q-348 80 -523 90q70 232 115 391l52 13q50 0 229 -92q328 -174 358 -186q-44 -122 -98 -244z" />
    <glyph glyph-name="Eacute" unicode="&#xc9;" horiz-adv-x="1000" 
d="M1395 1551l-92 -291h-116q-323 0 -506 -15l63 -36q-15 -33 -74 -173q-16 -36 -36 -85l431 16l-91 -261l-425 -15q-46 -136 -102 -346q174 10 520 26l-95 -289q-90 1 -156 1h-59q-220 0 -647 -70v3q0 14 53 202q62 217 111 355q82 229 187 463q40 88 90 183
q-106 -12 -198 -23l88 300q208 16 497 33q172 10 557 22zM618 1864q422 166 747 246l25 -30q-60 -212 -105 -341q-335 -39 -720 -115l-45 -4q44 122 98 244z" />
    <glyph glyph-name="Ecircumflex" unicode="&#xca;" horiz-adv-x="1000" 
d="M1395 1551l-92 -291h-116q-323 0 -506 -15l63 -36q-15 -33 -74 -173q-16 -36 -36 -85l431 16l-91 -261l-425 -15q-46 -136 -102 -346q174 10 520 26l-95 -289q-90 1 -156 1h-59q-220 0 -647 -70v3q0 14 53 202q62 217 111 355q82 229 187 463q40 88 90 183
q-106 -12 -198 -23l88 300q208 16 497 33q172 10 557 22zM580 1594q90 196 154 330q212 112 384 223l386 -266q-44 -144 -84 -281l-345 254q-198 -120 -495 -260z" />
    <glyph glyph-name="Edieresis" unicode="&#xcb;" horiz-adv-x="1000" 
d="M1395 1551l-92 -291h-116q-323 0 -506 -15l63 -36q-15 -33 -74 -173q-16 -36 -36 -85l431 16l-91 -261l-425 -15q-46 -136 -102 -346q174 10 520 26l-95 -289q-90 1 -156 1h-59q-220 0 -647 -70v3q0 14 53 202q62 217 111 355q82 229 187 463q40 88 90 183
q-106 -12 -198 -23l88 300q208 16 497 33q172 10 557 22zM1185 1992l363 46q-27 -89 -79 -299l-23 -48q-119 0 -356 -41q45 181 95 342zM617 1992l363 46q-27 -89 -79 -299l-23 -48q-119 0 -356 -41q45 181 95 342z" />
    <glyph glyph-name="Igrave" unicode="&#xcc;" horiz-adv-x="950" 
d="M298 300l34 114q12 39 51 159q60 180 189 463q32 74 101 209q-109 -18 -331 -49l88 300q157 14 395 33q249 19 437 22l-92 -291q-192 0 -304 -4l87 -47q-30 -58 -76 -173q-57 -141 -158 -463q-36 -119 -69 -247q32 2 111 6l155 6l-92 -292q-234 0 -305 -4
q-115 -8 -523 -61l88 301l100 10q43 3 114 8zM1276 1600l-133 28q-348 80 -523 90q70 232 115 391l52 13q50 0 229 -92q328 -174 358 -186q-44 -122 -98 -244z" />
    <glyph glyph-name="Iacute" unicode="&#xcd;" horiz-adv-x="950" 
d="M298 300l34 114q12 39 51 159q60 180 189 463q32 74 101 209q-109 -18 -331 -49l88 300q157 14 395 33q249 19 437 22l-92 -291q-192 0 -304 -4l87 -47q-30 -58 -76 -173q-57 -141 -158 -463q-36 -119 -69 -247q32 2 111 6l155 6l-92 -292q-234 0 -305 -4
q-115 -8 -523 -61l88 301l100 10q43 3 114 8zM618 1864q422 166 747 246l25 -30q-60 -212 -105 -341q-335 -39 -720 -115l-45 -4q44 122 98 244z" />
    <glyph glyph-name="Icircumflex" unicode="&#xce;" horiz-adv-x="950" 
d="M298 300l34 114q12 39 51 159q60 180 189 463q32 74 101 209q-109 -18 -331 -49l88 300q157 14 395 33q249 19 437 22l-92 -291q-192 0 -304 -4l87 -47q-30 -58 -76 -173q-57 -141 -158 -463q-36 -119 -69 -247q32 2 111 6l155 6l-92 -292q-234 0 -305 -4
q-115 -8 -523 -61l88 301l100 10q43 3 114 8zM480 1594q90 196 154 330q212 112 384 223l386 -266q-44 -144 -84 -281l-345 254q-198 -120 -495 -260z" />
    <glyph glyph-name="Idieresis" unicode="&#xcf;" horiz-adv-x="950" 
d="M298 300l34 114q12 39 51 159q60 180 189 463q32 74 101 209q-109 -18 -331 -49l88 300q157 14 395 33q249 19 437 22l-92 -291q-192 0 -304 -4l87 -47q-30 -58 -76 -173q-57 -141 -158 -463q-36 -119 -69 -247q32 2 111 6l155 6l-92 -292q-234 0 -305 -4
q-115 -8 -523 -61l88 301l100 10q43 3 114 8zM1085 1992l363 46q-27 -89 -79 -299l-23 -48q-119 0 -356 -41q45 181 95 342zM517 1992l363 46q-27 -89 -79 -299l-23 -48q-119 0 -356 -41q45 181 95 342z" />
    <glyph glyph-name="Eth" unicode="&#xd0;" 
d="M337 951q46 112 129 269q-33 -21 -90 -50l-73 342q257 39 444 39q43 0 97 -5q148 -11 170 -15q78 -12 174 -54q210 -87 210 -299q0 -40 -9 -77q-85 -730 -960 -1009l-75 -23q-178 -24 -336 -32q24 71 132 387q38 114 107 308l-149 -6l89 220zM651 964l315 12l-79 -220
l-317 -12l-127 -346q249 58 459 273q169 176 169 365q0 191 -73 217q-82 29 -134 29h-4q-138 -6 -218 -29l112 -57q-15 -26 -75 -157q-8 -25 -28 -75z" />
    <glyph glyph-name="Ntilde" unicode="&#xd1;" 
d="M434 1517l367 83q109 -434 156 -813q7 0 46 93l40 97q64 153 286 553l41 4q113 13 260 22q-134 -243 -282 -579q-53 -121 -157 -463q-28 -92 -109 -368l-379 -92q4 21 4 65q0 215 -53 570q-20 140 -35 140l-132 -315q-90 -214 -108 -403l-379 -93q66 244 149 496
q64 191 189 463q54 120 152 301q6 18 6 29q0 33 -26 104q-32 92 -36 106zM1550 1730q-82 -106 -190 -106q-151 20 -221 52q-144 64 -236 64q-128 0 -269 -130q51 185 87 311q77 82 160 92q110 0 281 -70q66 -36 227 -56q104 0 251 107q-42 -142 -90 -264z" />
    <glyph glyph-name="Ograve" unicode="&#xd2;" horiz-adv-x="1400" 
d="M1617 1240l-86 -57q42 -121 42 -207q0 -62 -19 -173q-60 -350 -260 -557q-219 -227 -559 -227q-278 0 -434 192q-144 178 -144 462q0 61 7 130q36 304 266 524q236 224 539 224q458 0 648 -311zM1218 766q8 43 8 69q0 116 -70 178l62 35q-81 166 -275 166
q-197 0 -329 -127q-124 -121 -154 -321q-7 -46 -7 -78q0 -150 88 -257q93 -113 240 -113q177 0 297 139q107 124 140 309zM1376 1600l-133 28q-348 80 -523 90q70 232 115 391l52 13q50 0 229 -92q328 -174 358 -186q-44 -122 -98 -244z" />
    <glyph glyph-name="Oacute" unicode="&#xd3;" horiz-adv-x="1400" 
d="M1617 1240l-86 -57q42 -121 42 -207q0 -62 -19 -173q-60 -350 -260 -557q-219 -227 -559 -227q-278 0 -434 192q-144 178 -144 462q0 61 7 130q36 304 266 524q236 224 539 224q458 0 648 -311zM1218 766q8 43 8 69q0 116 -70 178l62 35q-81 166 -275 166
q-197 0 -329 -127q-124 -121 -154 -321q-7 -46 -7 -78q0 -150 88 -257q93 -113 240 -113q177 0 297 139q107 124 140 309zM718 1864q422 166 747 246l25 -30q-60 -212 -105 -341q-335 -39 -720 -115l-45 -4q44 122 98 244z" />
    <glyph glyph-name="Ocircumflex" unicode="&#xd4;" horiz-adv-x="1400" 
d="M1617 1240l-86 -57q42 -121 42 -207q0 -62 -19 -173q-60 -350 -260 -557q-219 -227 -559 -227q-278 0 -434 192q-144 178 -144 462q0 61 7 130q36 304 266 524q236 224 539 224q458 0 648 -311zM1218 766q8 43 8 69q0 116 -70 178l62 35q-81 166 -275 166
q-197 0 -329 -127q-124 -121 -154 -321q-7 -46 -7 -78q0 -150 88 -257q93 -113 240 -113q177 0 297 139q107 124 140 309zM680 1594q90 196 154 330q212 112 384 223l386 -266q-44 -144 -84 -281l-345 254q-198 -120 -495 -260z" />
    <glyph glyph-name="Otilde" unicode="&#xd5;" horiz-adv-x="1400" 
d="M1617 1240l-86 -57q42 -121 42 -207q0 -62 -19 -173q-60 -350 -260 -557q-219 -227 -559 -227q-278 0 -434 192q-144 178 -144 462q0 61 7 130q36 304 266 524q236 224 539 224q458 0 648 -311zM1218 766q8 43 8 69q0 116 -70 178l62 35q-81 166 -275 166
q-197 0 -329 -127q-124 -121 -154 -321q-7 -46 -7 -78q0 -150 88 -257q93 -113 240 -113q177 0 297 139q107 124 140 309zM1550 1730q-82 -106 -190 -106q-151 20 -221 52q-144 64 -236 64q-128 0 -269 -130q51 185 87 311q77 82 160 92q110 0 281 -70q66 -36 227 -56
q104 0 251 107q-42 -142 -90 -264z" />
    <glyph glyph-name="Odieresis" unicode="&#xd6;" horiz-adv-x="1400" 
d="M1617 1240l-86 -57q42 -121 42 -207q0 -62 -19 -173q-60 -350 -260 -557q-219 -227 -559 -227q-278 0 -434 192q-144 178 -144 462q0 61 7 130q36 304 266 524q236 224 539 224q458 0 648 -311zM1218 766q8 43 8 69q0 116 -70 178l62 35q-81 166 -275 166
q-197 0 -329 -127q-124 -121 -154 -321q-7 -46 -7 -78q0 -150 88 -257q93 -113 240 -113q177 0 297 139q107 124 140 309zM1285 1992l363 46q-27 -89 -79 -299l-23 -48q-119 0 -356 -41q45 181 95 342zM717 1992l363 46q-27 -89 -79 -299l-23 -48q-119 0 -356 -41
q45 181 95 342z" />
    <glyph glyph-name="multiply" unicode="&#xd7;" horiz-adv-x="1250" 
d="M631 934q-27 349 -106 497h250q44 -109 86 -261q174 178 286 261l251 -1l-112 -125q-64 -69 -234 -249l-145 -156q20 -158 20 -342q0 -187 -20 -308l-303 -37q31 149 36 401q-249 -275 -335 -375l-305 -46q260 345 631 741z" />
    <glyph glyph-name="Oslash" unicode="&#xd8;" horiz-adv-x="1400" 
d="M591 381q80 -63 190 -63q177 0 297 139q107 124 140 309q8 43 8 69q0 116 -70 178l62 35q-9 19 -20 37l-231 -266l-310 -363zM458 619q75 88 150 171l296 324q42 46 91 97q-25 3 -52 3q-197 0 -329 -127q-124 -121 -154 -321q-7 -46 -7 -78q0 -36 5 -69zM1474 1402
q84 -66 143 -162l-86 -57q42 -121 42 -207q0 -62 -19 -173q-60 -350 -260 -557q-219 -227 -559 -227q-217 0 -359 117l-26 -30l-379 -93q127 168 252 324q-66 144 -66 336q0 61 7 130q36 304 266 524q236 224 539 224q175 0 312 -46q9 10 19 20l41 4q113 13 260 22
q-50 -60 -127 -149z" />
    <glyph glyph-name="Ugrave" unicode="&#xd9;" horiz-adv-x="1300" 
d="M1597 1551q-39 -94 -133.5 -398.5t-145.5 -449.5q-142 -401 -324 -555q-154 -129 -400 -129q-124 0 -246 87q-175 128 -175 375q0 103 30 222q95 372 299 809l328 39q-109 -262 -141 -342q-122 -309 -170 -506q-17 -74 -17 -145q0 -220 158 -220q180 0 316 365l315 848
h306zM1376 1600l-133 28q-348 80 -523 90q70 232 115 391l52 13q50 0 229 -92q328 -174 358 -186q-44 -122 -98 -244z" />
    <glyph glyph-name="Uacute" unicode="&#xda;" horiz-adv-x="1300" 
d="M1597 1551q-39 -94 -133.5 -398.5t-145.5 -449.5q-142 -401 -324 -555q-154 -129 -400 -129q-124 0 -246 87q-175 128 -175 375q0 103 30 222q95 372 299 809l328 39q-109 -262 -141 -342q-122 -309 -170 -506q-17 -74 -17 -145q0 -220 158 -220q180 0 316 365l315 848
h306zM788 1864q422 166 747 246l25 -30q-60 -212 -105 -341q-335 -39 -720 -115l-45 -4q44 122 98 244z" />
    <glyph glyph-name="Ucircumflex" unicode="&#xdb;" horiz-adv-x="1300" 
d="M1597 1551q-39 -94 -133.5 -398.5t-145.5 -449.5q-142 -401 -324 -555q-154 -129 -400 -129q-124 0 -246 87q-175 128 -175 375q0 103 30 222q95 372 299 809l328 39q-109 -262 -141 -342q-122 -309 -170 -506q-17 -74 -17 -145q0 -220 158 -220q180 0 316 365l315 848
h306zM680 1594q90 196 154 330q212 112 384 223l386 -266q-44 -144 -84 -281l-345 254q-198 -120 -495 -260z" />
    <glyph glyph-name="Udieresis" unicode="&#xdc;" horiz-adv-x="1300" 
d="M1597 1551q-39 -94 -133.5 -398.5t-145.5 -449.5q-142 -401 -324 -555q-154 -129 -400 -129q-124 0 -246 87q-175 128 -175 375q0 103 30 222q95 372 299 809l328 39q-109 -262 -141 -342q-122 -309 -170 -506q-17 -74 -17 -145q0 -220 158 -220q180 0 316 365l315 848
h306zM1285 1992l363 46q-27 -89 -79 -299l-23 -48q-119 0 -356 -41q45 181 95 342zM717 1992l363 46q-27 -89 -79 -299l-23 -48q-119 0 -356 -41q45 181 95 342z" />
    <glyph glyph-name="Yacute" unicode="&#xdd;" horiz-adv-x="1100" 
d="M844 721q-40 -135 -161 -615l-11 -3q-134 -25 -368 -90q14 55 121 382l105 326q-32 104 -66 298q-45 256 -55 302q-27 122 -60 187h310q19 -62 40 -210l48 -314q33 55 197 318q96 155 159 210l332 46q-109 -102 -405 -552q-122 -184 -186 -285zM618 1864q422 166 747 246
l25 -30q-60 -212 -105 -341q-335 -39 -720 -115l-45 -4q44 122 98 244z" />
    <glyph glyph-name="Thorn" unicode="&#xde;" 
d="M1008 854q0 80 -107 119q-31 12 -101 12h-26q-62 -3 -96 -69q-36 -63 -75 -157q-3 -7 -40 -108l86 3q134 3 226 39q133 52 133 161zM802 1263q117 -8 136 -12q78 -12 174 -54q210 -87 210 -299q0 -31 -9 -77q-49 -254 -392 -364q-183 -57 -441 -57l-83 -292l-11 -2
q-160 -31 -368 -87q151 458 280 740q26 56 65 152q-32 -13 -63 -21l-73 342q152 23 279 32l84 226l310 50z" />
    <glyph glyph-name="germandbls" unicode="&#xdf;" horiz-adv-x="1350" 
d="M687 687l68 248q114 6 196 38q133 52 133 161q0 80 -107 119q-31 12 -101 12h-26q-62 -3 -145 -165h-5l-380 -1045l-58 -6q-130 -15 -244 -30q70 270 187 557l169 463q26 56 75 152q151 330 395 355q228 -7 364 -69q190 -87 190 -299q0 -31 -9 -77q-40 -209 -256 -346
q58 -110 58 -154q0 -32 -9 -78q-66 -339 -428 -420q-14 -2 -233 -26l77 284q81 10 144 34q134 52 134 161q0 81 -106 119q-27 10 -83 12z" />
    <glyph glyph-name="agrave" unicode="&#xe0;" horiz-adv-x="905" 
d="M766 1294q-41 -58 -172 -278l-72 -122l163 3l37 -29q46 101 46 371q0 41 -2 55zM684 717l-243 -12q-75 -119 -137 -310l-303 -75q13 50 118 263l73 148q103 209 324 516q121 169 239 300q70 2 207 9l7 -102q7 -116 7 -223q0 -211 -31 -392q-11 -31 -48 -261
q-15 -95 -31 -155l-303 -74q32 103 121 368zM1101 1590l-107 22q-278 64 -418 72q56 186 92 313l42 11q40 0 183 -74q262 -139 286 -149q-35 -97 -78 -195z" />
    <glyph glyph-name="aacute" unicode="&#xe1;" horiz-adv-x="882" 
d="M766 1294q-41 -58 -172 -278l-72 -122l163 3l37 -29q46 101 46 371q0 41 -2 55zM684 717l-243 -12q-75 -119 -137 -310l-303 -75q13 50 118 263l73 148q103 209 324 516q121 169 239 300q70 2 207 9l7 -102q7 -116 7 -223q0 -211 -31 -392q-11 -31 -48 -261
q-15 -95 -31 -155l-303 -74q32 103 121 368zM654 1801q338 133 598 197l20 -24q-48 -170 -84 -273q-268 -31 -576 -92l-36 -3q35 98 78 195z" />
    <glyph glyph-name="acircumflex" unicode="&#xe2;" horiz-adv-x="879" 
d="M766 1294q-41 -58 -172 -278l-72 -122l163 3l37 -29q46 101 46 371q0 41 -2 55zM684 717l-243 -12q-75 -119 -137 -310l-303 -75q13 50 118 263l73 148q103 209 324 516q121 169 239 300q70 2 207 9l7 -102q7 -116 7 -223q0 -211 -31 -392q-11 -31 -48 -261
q-15 -95 -31 -155l-303 -74q32 103 121 368zM544 1585q72 157 123 264q170 89 307 179l309 -213q-35 -115 -67 -225l-276 203q-158 -96 -396 -208z" />
    <glyph glyph-name="atilde" unicode="&#xe3;" horiz-adv-x="892" 
d="M766 1294q-41 -58 -172 -278l-72 -122l163 3l37 -29q46 101 46 371q0 41 -2 55zM684 717l-243 -12q-75 -119 -137 -310l-303 -75q13 50 118 263l73 148q103 209 324 516q121 169 239 300q70 2 207 9l7 -102q7 -116 7 -223q0 -211 -31 -392q-11 -31 -48 -261
q-15 -95 -31 -155l-303 -74q32 103 121 368zM1160 1694q-66 -85 -152 -85q-121 16 -177 42q-115 51 -188 51q-103 0 -216 -104q41 148 70 249q61 65 128 73q88 0 224 -56q53 -28 182 -44q84 0 201 85q-34 -113 -72 -211z" />
    <glyph glyph-name="adieresis" unicode="&#xe4;" horiz-adv-x="871" 
d="M766 1294q-41 -58 -172 -278l-72 -122l163 3l37 -29q46 101 46 371q0 41 -2 55zM684 717l-243 -12q-75 -119 -137 -310l-303 -75q13 50 118 263l73 148q103 209 324 516q121 169 239 300q70 2 207 9l7 -102q7 -116 7 -223q0 -211 -31 -392q-11 -31 -48 -261
q-15 -95 -31 -155l-303 -74q32 103 121 368zM1028 1904l290 36q-21 -71 -63 -239l-18 -38q-95 0 -285 -33q36 145 76 274zM574 1904l290 36q-22 -71 -63 -239l-19 -38q-95 0 -284 -33q36 145 76 274z" />
    <glyph glyph-name="aring" unicode="&#xe5;" horiz-adv-x="931" 
d="M766 1294q-41 -58 -172 -278l-72 -122l163 3l37 -29q46 101 46 371q0 41 -2 55zM684 717l-243 -12q-75 -119 -137 -310l-303 -75q13 50 118 263l73 148q103 209 324 516q121 169 239 300q70 2 207 9l7 -102q7 -116 7 -223q0 -211 -31 -392q-11 -31 -48 -261
q-15 -95 -31 -155l-303 -74q32 103 121 368zM1075 1961l-23 -16q11 -33 11 -56q0 -17 -5 -47q-16 -95 -70 -151q-60 -61 -152 -61q-75 0 -117 52q-39 48 -39 125q0 17 2 35q10 83 72 142q64 61 146 61q124 0 175 -84zM919 1838q1 5 1 8q0 12 -7 19l6 4q-8 17 -29 17t-36 -13
q-13 -13 -16 -35q-1 -5 -1 -8q0 -16 9 -28q10 -12 26 -12q19 0 32 15q12 13 15 33z" />
    <glyph glyph-name="ae" unicode="&#xe6;" horiz-adv-x="1281" 
d="M766 1294q-41 -58 -172 -278l-72 -122l163 3l37 -29q46 101 46 371q0 41 -2 55zM574 352l-11 -3q23 75 77 236q22 73 42 132l-241 -12q-75 -119 -137 -310l-303 -75q13 50 118 263l73 148q103 209 324 516q121 169 239 300q70 2 207 9l2 -40q121 9 266 17q138 8 446 18
l-74 -233h-92q-259 0 -405 -12l50 -29q-12 -26 -59 -138q-13 -29 -29 -68l345 13l-73 -209l-340 -12q-37 -109 -81 -277q139 8 416 21l-76 -231h-172q-176 0 -518 -56v3q0 4 6 29z" />
    <glyph glyph-name="ccedilla" unicode="&#xe7;" horiz-adv-x="1208" 
d="M435 344q-122 35 -203 135q-115 142 -115 369q0 49 5 104q29 244 213 420q189 179 431 179q367 0 519 -249l-320 -154q-64 133 -220 133q-157 0 -263 -101q-99 -97 -123 -257q-6 -37 -6 -63q0 -120 71 -205q74 -91 192 -91q127 0 224 98l191 -150q-108 -115 -254 -159
q-19 -92 -83 -205q-44 -108 -174 -144q-73 -14 -191 -22l65 263l36 3q36 35 53 82z" />
    <glyph glyph-name="egrave" unicode="&#xe8;" horiz-adv-x="723" 
d="M1118 1551l-74 -233h-92q-259 0 -405 -12l50 -29q-12 -26 -59 -138q-13 -29 -29 -68l345 13l-73 -209l-340 -12q-37 -109 -81 -277q139 8 416 21l-76 -231h-172q-176 0 -518 -56v3q0 11 42 161q50 174 89 284q66 184 150 371q32 70 72 146q-85 -9 -159 -18l71 240
q166 13 397 26q138 8 446 18zM1023 1590l-107 22q-278 64 -418 72q56 186 92 313l42 11q40 0 183 -74q262 -139 286 -149q-35 -97 -78 -195z" />
    <glyph glyph-name="eacute" unicode="&#xe9;" horiz-adv-x="723" 
d="M1118 1551l-74 -233h-92q-259 0 -405 -12l50 -29q-12 -26 -59 -138q-13 -29 -29 -68l345 13l-73 -209l-340 -12q-37 -109 -81 -277q139 8 416 21l-76 -231h-172q-176 0 -518 -56v3q0 11 42 161q50 174 89 284q66 184 150 371q32 70 72 146q-85 -9 -159 -18l71 240
q166 13 397 26q138 8 446 18zM496 1801q338 133 598 197l20 -24q-48 -170 -84 -273q-268 -31 -576 -92l-36 -3q35 98 78 195z" />
    <glyph glyph-name="ecircumflex" unicode="&#xea;" horiz-adv-x="701" 
d="M1118 1551l-74 -233h-92q-259 0 -405 -12l50 -29q-12 -26 -59 -138q-13 -29 -29 -68l345 13l-73 -209l-340 -12q-37 -109 -81 -277q139 8 416 21l-76 -231h-172q-176 0 -518 -56v3q0 11 42 161q50 174 89 284q66 184 150 371q32 70 72 146q-85 -9 -159 -18l71 240
q166 13 397 26q138 8 446 18zM466 1585q72 157 123 264q170 89 307 179l309 -213q-35 -115 -67 -225l-276 203q-158 -96 -396 -208z" />
    <glyph glyph-name="edieresis" unicode="&#xeb;" horiz-adv-x="692" 
d="M1118 1551l-74 -233h-92q-259 0 -405 -12l50 -29q-12 -26 -59 -138q-13 -29 -29 -68l345 13l-73 -209l-340 -12q-37 -109 -81 -277q139 8 416 21l-76 -231h-172q-176 0 -518 -56v3q0 11 42 161q50 174 89 284q66 184 150 371q32 70 72 146q-85 -9 -159 -18l71 240
q166 13 397 26q138 8 446 18zM950 1904l290 36q-21 -71 -63 -239l-18 -38q-95 0 -285 -33q36 145 76 274zM496 1904l290 36q-22 -71 -63 -239l-19 -38q-95 0 -284 -33q36 145 76 274z" />
    <glyph glyph-name="igrave" unicode="&#xec;" horiz-adv-x="674" 
d="M237 550l28 91q9 31 40 127q48 144 152 371q25 59 80 167q-87 -14 -264 -39l70 240q126 11 316 26q199 15 350 18l-74 -233q-154 0 -243 -3l69 -38q-24 -46 -60 -138q-46 -113 -127 -371q-29 -95 -55 -197q26 1 89 5l124 4l-74 -233q-187 0 -244 -3q-92 -7 -418 -49
l70 241l80 8q35 2 91 6zM1020 1590l-107 22q-278 64 -418 72q56 186 92 313l42 11q40 0 183 -74q262 -139 286 -149q-35 -97 -78 -195z" />
    <glyph glyph-name="iacute" unicode="&#xed;" horiz-adv-x="671" 
d="M237 550l28 91q9 31 40 127q48 144 152 371q25 59 80 167q-87 -14 -264 -39l70 240q126 11 316 26q199 15 350 18l-74 -233q-154 0 -243 -3l69 -38q-24 -46 -60 -138q-46 -113 -127 -371q-29 -95 -55 -197q26 1 89 5l124 4l-74 -233q-187 0 -244 -3q-92 -7 -418 -49
l70 241l80 8q35 2 91 6zM493 1801q338 133 598 197l20 -24q-48 -170 -84 -273q-268 -31 -576 -92l-36 -3q35 98 78 195z" />
    <glyph glyph-name="icircumflex" unicode="&#xee;" horiz-adv-x="668" 
d="M237 550l28 91q9 31 40 127q48 144 152 371q25 59 80 167q-87 -14 -264 -39l70 240q126 11 316 26q199 15 350 18l-74 -233q-154 0 -243 -3l69 -38q-24 -46 -60 -138q-46 -113 -127 -371q-29 -95 -55 -197q26 1 89 5l124 4l-74 -233q-187 0 -244 -3q-92 -7 -418 -49
l70 241l80 8q35 2 91 6zM383 1585q72 157 123 264q170 89 307 179l309 -213q-35 -115 -67 -225l-276 203q-158 -96 -396 -208z" />
    <glyph glyph-name="idieresis" unicode="&#xef;" horiz-adv-x="660" 
d="M237 550l28 91q9 31 40 127q48 144 152 371q25 59 80 167q-87 -14 -264 -39l70 240q126 11 316 26q199 15 350 18l-74 -233q-154 0 -243 -3l69 -38q-24 -46 -60 -138q-46 -113 -127 -371q-29 -95 -55 -197q26 1 89 5l124 4l-74 -233q-187 0 -244 -3q-92 -7 -418 -49
l70 241l80 8q35 2 91 6zM867 1904l290 36q-21 -71 -63 -239l-18 -38q-95 0 -285 -33q36 145 76 274zM413 1904l290 36q-22 -71 -63 -239l-19 -38q-95 0 -284 -33q36 145 76 274z" />
    <glyph glyph-name="eth" unicode="&#xf0;" horiz-adv-x="924" 
d="M273 1071q38 90 104 215q-27 -17 -72 -40l-59 274q206 31 356 31q34 0 77 -4q119 -9 136 -12q63 -10 139 -43q168 -70 168 -240q0 -32 -7 -61q-68 -584 -768 -807l-60 -19q-142 -19 -269 -25q20 56 106 309q31 91 85 246l-119 -4l72 176zM525 1081l252 10l-63 -176
l-254 -10l-102 -277q200 47 368 219q135 141 135 292q0 153 -59 173q-65 24 -107 24h-3q-110 -5 -174 -24l89 -45q-12 -21 -60 -126q-7 -19 -22 -60z" />
    <glyph glyph-name="ntilde" unicode="&#xf1;" horiz-adv-x="872" 
d="M347 1524l294 66q87 -347 125 -650q5 0 36 74l32 78q52 122 229 442l33 3q90 11 208 18q-107 -195 -226 -463q-42 -97 -125 -371q-23 -73 -87 -294l-304 -74q4 17 4 52q0 172 -43 456q-16 112 -28 112l-105 -252q-72 -171 -87 -322l-303 -75q53 196 119 397
q51 153 151 371q44 96 122 240q5 15 5 24q0 26 -21 83q-26 73 -29 85zM1240 1694q-66 -85 -152 -85q-121 16 -177 42q-115 51 -188 51q-103 0 -216 -104q41 148 70 249q61 65 128 73q88 0 224 -56q53 -28 182 -44q84 0 201 85q-34 -113 -72 -211z" />
    <glyph glyph-name="ograve" unicode="&#xf2;" horiz-adv-x="1108" 
d="M1325 1302l-69 -46q33 -96 33 -165q0 -50 -15 -139q-48 -280 -208 -445q-175 -182 -447 -182q-222 0 -347 154q-115 142 -115 369q0 49 5 104q29 244 213 420q189 179 431 179q367 0 519 -249zM1005 923q7 34 7 55q0 93 -56 142l49 28q-64 133 -220 133q-157 0 -263 -101
q-99 -97 -123 -257q-6 -37 -6 -63q0 -120 71 -205q74 -91 192 -91q141 0 237 112q86 99 112 247zM1132 1590l-107 22q-278 64 -418 72q56 186 92 313l42 11q40 0 183 -74q262 -139 286 -149q-35 -97 -78 -195z" />
    <glyph glyph-name="oacute" unicode="&#xf3;" horiz-adv-x="1108" 
d="M1325 1302l-69 -46q33 -96 33 -165q0 -50 -15 -139q-48 -280 -208 -445q-175 -182 -447 -182q-222 0 -347 154q-115 142 -115 369q0 49 5 104q29 244 213 420q189 179 431 179q367 0 519 -249zM1005 923q7 34 7 55q0 93 -56 142l49 28q-64 133 -220 133q-157 0 -263 -101
q-99 -97 -123 -257q-6 -37 -6 -63q0 -120 71 -205q74 -91 192 -91q141 0 237 112q86 99 112 247zM605 1801q338 133 598 197l20 -24q-48 -170 -84 -273q-268 -31 -576 -92l-36 -3q35 98 78 195z" />
    <glyph glyph-name="ocircumflex" unicode="&#xf4;" horiz-adv-x="1108" 
d="M1325 1302l-69 -46q33 -96 33 -165q0 -50 -15 -139q-48 -280 -208 -445q-175 -182 -447 -182q-222 0 -347 154q-115 142 -115 369q0 49 5 104q29 244 213 420q189 179 431 179q367 0 519 -249zM1005 923q7 34 7 55q0 93 -56 142l49 28q-64 133 -220 133q-157 0 -263 -101
q-99 -97 -123 -257q-6 -37 -6 -63q0 -120 71 -205q74 -91 192 -91q141 0 237 112q86 99 112 247zM575 1585q72 157 123 264q170 89 307 179l309 -213q-35 -115 -67 -225l-276 203q-158 -96 -396 -208z" />
    <glyph glyph-name="otilde" unicode="&#xf5;" horiz-adv-x="1103" 
d="M1325 1302l-69 -46q33 -96 33 -165q0 -50 -15 -139q-48 -280 -208 -445q-175 -182 -447 -182q-222 0 -347 154q-115 142 -115 369q0 49 5 104q29 244 213 420q189 179 431 179q367 0 519 -249zM1005 923q7 34 7 55q0 93 -56 142l49 28q-64 133 -220 133q-157 0 -263 -101
q-99 -97 -123 -257q-6 -37 -6 -63q0 -120 71 -205q74 -91 192 -91q141 0 237 112q86 99 112 247zM1271 1694q-66 -85 -152 -85q-121 16 -177 42q-115 51 -188 51q-103 0 -216 -104q41 148 70 249q61 65 128 73q88 0 224 -56q53 -28 182 -44q84 0 201 85q-34 -113 -72 -211z
" />
    <glyph glyph-name="odieresis" unicode="&#xf6;" horiz-adv-x="1102" 
d="M1325 1302l-69 -46q33 -96 33 -165q0 -50 -15 -139q-48 -280 -208 -445q-175 -182 -447 -182q-222 0 -347 154q-115 142 -115 369q0 49 5 104q29 244 213 420q189 179 431 179q367 0 519 -249zM1005 923q7 34 7 55q0 93 -56 142l49 28q-64 133 -220 133q-157 0 -263 -101
q-99 -97 -123 -257q-6 -37 -6 -63q0 -120 71 -205q74 -91 192 -91q141 0 237 112q86 99 112 247zM1059 1904l290 36q-21 -71 -63 -239l-18 -38q-95 0 -285 -33q36 145 76 274zM605 1904l290 36q-22 -71 -63 -239l-19 -38q-95 0 -284 -33q36 145 76 274z" />
    <glyph glyph-name="divide" unicode="&#xf7;" horiz-adv-x="1050" 
d="M297 946l769 30l-79 -220l-779 -30zM595 1392l363 46q-27 -89 -79 -299l-23 -48q-119 0 -356 -41q45 181 95 342zM437 592l363 46q-27 -89 -79 -299l-23 -48q-119 0 -356 -41q45 181 95 342z" />
    <glyph glyph-name="oslash" unicode="&#xf8;" horiz-adv-x="1071" 
d="M467 615q64 -51 152 -51q141 0 237 112q86 99 112 247q7 34 7 55q0 93 -56 142l49 28q-7 16 -16 30l-184 -213l-248 -290zM360 805q61 70 120 137l237 259q34 37 73 78q-20 2 -42 2q-157 0 -263 -101q-99 -97 -123 -257q-6 -37 -6 -63q0 -28 4 -55zM1173 1432
q68 -53 115 -130l-69 -46q33 -96 33 -165q0 -50 -15 -139q-48 -280 -208 -445q-175 -182 -447 -182q-173 0 -287 93l-21 -23l-303 -75q101 135 201 259q-52 115 -52 269q0 49 5 104q29 244 213 420q189 179 431 179q141 0 249 -37l16 16l33 3q90 11 208 18
q-40 -48 -102 -119z" />
    <glyph glyph-name="ugrave" unicode="&#xf9;" horiz-adv-x="1015" 
d="M1313 1551q-32 -75 -107.5 -319t-116.5 -360q-113 -320 -259 -444q-123 -103 -320 -103q-99 0 -197 70q-140 102 -140 300q0 82 24 177q76 298 240 648l262 31q-87 -210 -113 -274q-97 -247 -136 -405q-13 -59 -13 -116q0 -176 126 -176q144 0 253 292l252 679h245z
M1136 1590l-107 22q-278 64 -418 72q56 186 92 313l42 11q40 0 183 -74q262 -139 286 -149q-35 -97 -78 -195z" />
    <glyph glyph-name="uacute" unicode="&#xfa;" horiz-adv-x="1015" 
d="M1313 1551q-32 -75 -107.5 -319t-116.5 -360q-113 -320 -259 -444q-123 -103 -320 -103q-99 0 -197 70q-140 102 -140 300q0 82 24 177q76 298 240 648l262 31q-87 -210 -113 -274q-97 -247 -136 -405q-13 -59 -13 -116q0 -176 126 -176q144 0 253 292l252 679h245z
M665 1801q338 133 598 197l20 -24q-48 -170 -84 -273q-268 -31 -576 -92l-36 -3q35 98 78 195z" />
    <glyph glyph-name="ucircumflex" unicode="&#xfb;" horiz-adv-x="1014" 
d="M1313 1551q-32 -75 -107.5 -319t-116.5 -360q-113 -320 -259 -444q-123 -103 -320 -103q-99 0 -197 70q-140 102 -140 300q0 82 24 177q76 298 240 648l262 31q-87 -210 -113 -274q-97 -247 -136 -405q-13 -59 -13 -116q0 -176 126 -176q144 0 253 292l252 679h245z
M579 1585q72 157 123 264q170 89 307 179l309 -213q-35 -115 -67 -225l-276 203q-158 -96 -396 -208z" />
    <glyph glyph-name="udieresis" unicode="&#xfc;" horiz-adv-x="1005" 
d="M1313 1551q-32 -75 -107.5 -319t-116.5 -360q-113 -320 -259 -444q-123 -103 -320 -103q-99 0 -197 70q-140 102 -140 300q0 82 24 177q76 298 240 648l262 31q-87 -210 -113 -274q-97 -247 -136 -405q-13 -59 -13 -116q0 -176 126 -176q144 0 253 292l252 679h245z
M1063 1904l290 36q-21 -71 -63 -239l-18 -38q-95 0 -285 -33q36 145 76 274zM609 1904l290 36q-22 -71 -63 -239l-19 -38q-95 0 -284 -33q36 145 76 274z" />
    <glyph glyph-name="yacute" unicode="&#xfd;" horiz-adv-x="874" 
d="M736 887q-32 -108 -129 -492l-8 -3q-108 -20 -295 -72q11 44 97 306l84 261q-26 83 -53 238q-36 205 -44 242q-21 97 -48 149h248q15 -49 32 -168l39 -251q26 44 157 255q77 124 127 168l266 36q-87 -81 -324 -441q-98 -147 -149 -228zM555 1801q338 133 598 197l20 -24
q-48 -170 -84 -273q-268 -31 -576 -92l-36 -3q35 98 78 195z" />
    <glyph glyph-name="thorn" unicode="&#xfe;" horiz-adv-x="939" 
d="M810 993q0 64 -85 95q-25 10 -81 10h-21q-49 -2 -77 -55q-28 -51 -60 -126q-2 -5 -32 -86l69 2q107 3 181 31q106 42 106 129zM645 1321q94 -7 109 -10q63 -10 140 -43q168 -70 168 -240q0 -24 -8 -61q-39 -203 -313 -291q-147 -46 -353 -46l-66 -234l-9 -1
q-128 -25 -295 -70q121 367 224 592q21 45 52 122q-25 -11 -50 -17l-58 274q121 18 223 26l67 180l248 40z" />
    <glyph glyph-name="ydieresis" unicode="&#xff;" horiz-adv-x="871" 
d="M736 887q-32 -108 -129 -492l-8 -3q-108 -20 -295 -72q11 44 97 306l84 261q-26 83 -53 238q-36 205 -44 242q-21 97 -48 149h248q15 -49 32 -168l39 -251q26 44 157 255q77 124 127 168l266 36q-87 -81 -324 -441q-98 -147 -149 -228zM929 1904l290 36q-21 -71 -63 -239
l-18 -38q-95 0 -285 -33q36 145 76 274zM475 1904l290 36q-22 -71 -63 -239l-19 -38q-95 0 -284 -33q36 145 76 274z" />
    <glyph glyph-name="dotlessi" unicode="&#x131;" horiz-adv-x="674" 
d="M237 550l28 91q9 31 40 127q48 144 152 371q25 59 80 167q-87 -14 -264 -39l70 240q126 11 316 26q199 15 350 18l-74 -233q-154 0 -243 -3l69 -38q-24 -46 -60 -138q-46 -113 -127 -371q-29 -95 -55 -197q26 1 89 5l124 4l-74 -233q-187 0 -244 -3q-92 -7 -418 -49
l70 241l80 8q35 2 91 6z" />
    <glyph glyph-name="circumflex" unicode="&#x2c6;" horiz-adv-x="900" 
d="M580 1594q90 196 154 330q212 112 384 223l386 -266q-44 -144 -84 -281l-345 254q-198 -120 -495 -260z" />
    <glyph glyph-name="caron" unicode="&#x2c7;" horiz-adv-x="900" 
d="M1504 2147q-90 -196 -154 -330q-212 -111 -384 -223l-386 266q44 144 84 281l345 -254q198 120 495 260z" />
    <glyph glyph-name="uni02C9" unicode="&#x2c9;" horiz-adv-x="1024" 
d="M254 1195v125h516v-125h-516z" />
    <glyph glyph-name="breve" unicode="&#x2d8;" horiz-adv-x="1024" 
d="M219 1349h51q17 -73 75 -107t167 -34t166 33.5t74 107.5h51q-20 -133 -94 -201.5t-197 -68.5q-122 0 -197 69t-96 201z" />
    <glyph glyph-name="dotaccent" unicode="&#x2d9;" 
d="M895 2004l363 46q-27 -89 -79 -299l-23 -48q-119 0 -356 -41q45 181 95 342z" />
    <glyph glyph-name="ring" unicode="&#x2da;" 
d="M895 2004l363 46q-27 -89 -79 -299l-23 -48q-119 0 -356 -41q45 181 95 342z" />
    <glyph glyph-name="ogonek" unicode="&#x2db;" horiz-adv-x="1500" 
d="M483 -202q-141 182 -141 319q0 34 7 60q76 -24 299 -79l127 -27q0 -94 93 -242l82 -129q-139 24 -309 57q-83 16 -158 41z" />
    <glyph glyph-name="tilde" unicode="&#x2dc;" 
d="M1450 1730q-82 -106 -190 -106q-151 20 -221 52q-144 64 -236 64q-128 0 -269 -130q51 185 87 311q77 82 160 92q110 0 281 -70q66 -36 227 -56q104 0 251 107q-42 -142 -90 -264z" />
    <glyph glyph-name="hungarumlaut" unicode="&#x2dd;" horiz-adv-x="1024" 
d="M217 1079l144 273q24 44 45.5 63t46.5 19q28 0 48 -20t20 -47q0 -16 -10.5 -35t-30.5 -41l-205 -212h-58zM502 1079l144 273q24 44 45.5 63t46.5 19q28 0 48 -20t20 -47q0 -16 -10.5 -35t-30.5 -41l-205 -212h-58z" />
    <glyph glyph-name="endash" unicode="&#x2013;" horiz-adv-x="900" 
d="M257 946l769 30l-79 -220l-779 -30z" />
    <glyph glyph-name="emdash" unicode="&#x2014;" horiz-adv-x="1000" 
d="M257 946l879 30l-79 -220l-889 -30z" />
    <glyph glyph-name="quoteleft" unicode="&#x2018;" horiz-adv-x="500" 
d="M664 1077q-217 -137 -347 -137q-24 0 -44 9q64 215 106 354q208 120 401 247q-63 -264 -116 -473z" />
    <glyph glyph-name="quoteright" unicode="&#x2019;" horiz-adv-x="500" 
d="M389 1413q217 137 347 137q24 0 44 -9q-64 -215 -106 -354q-208 -120 -401 -247q63 264 116 473z" />
    <glyph glyph-name="quotesinglbase" unicode="&#x201a;" horiz-adv-x="500" 
d="M66 223q217 137 347 137q24 0 44 -9q-64 -215 -106 -354q-208 -120 -401 -247q63 264 116 473z" />
    <glyph glyph-name="quotedblleft" unicode="&#x201c;" horiz-adv-x="950" 
d="M1104 1077q-217 -137 -347 -137q-24 0 -44 9q64 215 106 354q208 120 401 247q-63 -264 -116 -473zM664 1077q-217 -137 -347 -137q-24 0 -44 9q64 215 106 354q208 120 401 247q-63 -264 -116 -473z" />
    <glyph glyph-name="quotedblright" unicode="&#x201d;" horiz-adv-x="950" 
d="M389 1413q217 137 347 137q24 0 44 -9q-64 -215 -106 -354q-208 -120 -401 -247q63 264 116 473zM829 1413q217 137 347 137q24 0 44 -9q-64 -215 -106 -354q-208 -120 -401 -247q63 264 116 473z" />
    <glyph glyph-name="quotedblbase" unicode="&#x201e;" horiz-adv-x="950" 
d="M69 223q217 137 347 137q24 0 44 -9q-64 -215 -106 -354q-208 -120 -401 -247q63 264 116 473zM509 223q217 137 347 137q24 0 44 -9q-64 -215 -106 -354q-208 -120 -401 -247q63 264 116 473z" />
    <glyph glyph-name="dagger" unicode="&#x2020;" horiz-adv-x="1014" 
d="M486 1022q-8 97 -54 178q-57 101 -57 129q0 49 36 78.5t96 29.5q57 0 94.5 -27.5t37.5 -71.5q0 -32 -55 -137q-46 -85 -55 -179q96 8 177 54q101 57 129 57q49 0 79 -36t30 -96q0 -57 -27.5 -94.5t-72.5 -37.5q-32 0 -136 55q-85 46 -179 57q8 -176 110 -277
q-106 -460 -112 -974h-38q-6 514 -114 974q102 101 111 277q-96 -10 -178 -55q-101 -57 -129 -57q-49 0 -78.5 36t-29.5 96q0 57 27.5 94.5t71.5 37.5q32 0 137 -56q85 -46 179 -55z" />
    <glyph glyph-name="daggerdbl" unicode="&#x2021;" horiz-adv-x="1014" 
d="M528 186q94 11 179 57q104 55 136 55q45 0 72.5 -37.5t27.5 -94.5q0 -60 -30 -96t-79 -36q-28 0 -129 57q-81 46 -177 54q9 -94 55 -179q55 -105 55 -137q0 -44 -37.5 -71.5t-94.5 -27.5q-60 0 -96 29.5t-36 78.5q0 28 57 129q46 81 54 178q-94 -9 -179 -55
q-105 -56 -137 -56q-44 0 -71.5 37.5t-27.5 94.5q0 60 29.5 96t78.5 36q28 0 129 -57q82 -45 178 -55q-9 226 -111 398q102 171 111 397q-96 -10 -178 -55q-101 -57 -129 -57q-49 0 -78.5 36t-29.5 96q0 57 27.5 94.5t71.5 37.5q32 0 137 -56q85 -46 179 -55q-8 97 -54 178
q-57 101 -57 129q0 49 36 78.5t96 29.5q57 0 94.5 -27.5t37.5 -71.5q0 -32 -55 -137q-46 -85 -55 -179q96 8 177 54q101 57 129 57q49 0 79 -36t30 -96q0 -57 -27.5 -94.5t-72.5 -37.5q-32 0 -136 55q-85 46 -179 57q8 -226 110 -397q-102 -172 -110 -398z" />
    <glyph glyph-name="bullet" unicode="&#x2022;" horiz-adv-x="1024" 
d="M216 718q0 123 87 209t210 86q122 0 208.5 -86.5t86.5 -208.5t-87.5 -209.5t-209.5 -87.5q-123 0 -209 87t-86 210z" />
    <glyph glyph-name="ellipsis" unicode="&#x2026;" horiz-adv-x="1400" 
d="M113 361l363 46q-27 -89 -79 -299l-23 -48q-119 0 -356 -41q45 181 95 342zM555 364l363 46q-27 -89 -79 -299l-23 -48q-119 0 -356 -41q45 181 95 342zM987 362l363 46q-27 -89 -79 -299l-23 -48q-119 0 -356 -41q45 181 95 342z" />
    <glyph glyph-name="guilsinglleft" unicode="&#x2039;" 
d="M291 642l-3 -1l89 221l799 330l-79 -220l-535 -219l384 -209l-79 -219l-579 309z" />
    <glyph glyph-name="guilsinglright" unicode="&#x203a;" 
d="M1173 875l3 1l-89 -221l-799 -330l79 220l535 219l-384 209l79 219l579 -309z" />
    <glyph glyph-name="fraction" unicode="&#x2044;" horiz-adv-x="1250" 
d="M904 1114q156 169 396 411l41 4q113 13 260 22q-62 -75 -166 -193l-468 -539l-310 -363l-307 -350l-379 -93q322 427 637 777z" />
    <glyph glyph-name="fraction" unicode="&#x2215;" horiz-adv-x="1250" 
d="M904 1114q156 169 396 411l41 4q113 13 260 22q-62 -75 -166 -193l-468 -539l-310 -363l-307 -350l-379 -93q322 427 637 777z" />
    <glyph glyph-name="franc" unicode="&#x20a3;" 
d="M422 306q-30 -121 -47 -240q-165 -17 -375 -53v3q0 14 53 202q11 38 22 74l-167 -6l89 220l146 6q11 32 21 61q82 229 187 463q40 88 90 183q-106 -12 -198 -23l88 300q208 16 497 33q172 10 557 22l-92 -291h-116q-323 0 -506 -15l63 -36q-15 -33 -74 -173
q-16 -36 -36 -85l431 16l-91 -261l-425 -15q-23 -73 -37 -115q-9 -26 -17 -51l281 11l-79 -220z" />
    <glyph glyph-name="lira" unicode="&#x20a4;" horiz-adv-x="1350" 
d="M782 748l-73 -229q-33 -108 -52 -174q174 10 520 26l-95 -289q-90 1 -156 1h-59q-220 0 -817 -73l90 296q130 4 163 62q32 69 81 205q29 81 61 162l-237 -9l89 220l239 9q79 246 227 423q186 204 409 204q368 0 558 -311l-349 -152q-131 126 -235 126q-117 0 -199 -107
q-47 -83 -85 -170l204 8l-79 -220z" />
    <glyph glyph-name="peseta" unicode="&#x20a7;" horiz-adv-x="1350" 
d="M1084 1134q0 80 -107 119q-31 12 -101 12h-26q-62 -3 -168 -32l72 -37q-36 -63 -75 -157q-3 -7 -40 -108l86 3q134 3 226 39q133 52 133 161zM164 514q10 31 21 62q60 181 189 463q26 56 75 152q-42 -13 -73 -21l-73 342q257 39 444 39q43 0 97 -5q148 -11 170 -15
q78 -12 174 -54q210 -87 210 -299q0 -31 -9 -77q-49 -254 -392 -364q-183 -57 -441 -57l-34 -104q-6 -20 -15 -49l229 9l-79 -220l-209 -8q-23 -88 -51 -200l-11 -2q-160 -31 -368 -87q35 135 77 275l-50 -2l-167 -6l89 220l146 6z" />
    <glyph glyph-name="Euro" unicode="&#x20ac;" horiz-adv-x="1700" 
d="M410 1068q67 142 190 259q236 224 539 224q458 0 648 -311l-399 -192q-81 166 -275 166q-197 0 -329 -127l-4 -4l236 9l-79 -220l-286 -11q-14 -45 -21 -95q-3 -20 -5 -37l391 15l-79 -219l-278 -11q20 -44 52 -83q93 -113 240 -113q159 0 280 122l239 -188
q-220 -233 -565 -233q-278 0 -434 192q-98 121 -129 290l-184 -7l89 220l81 3q1 41 6 86q3 23 7 45l-183 -7l89 221z" />
    <glyph glyph-name="uni2116" unicode="&#x2116;" horiz-adv-x="1350" 
d="M1375 1151q4 21 4 34q0 58 -35 89l31 18q-41 83 -138 83q-98 0 -164 -64q-62 -60 -77 -160q-4 -23 -4 -39q0 -75 44 -129q47 -56 120 -56q89 0 149 69q53 62 70 155zM845 1146q-17 -53 -38 -124q-14 -46 -55 -184l-189 -46q2 11 2 33q0 107 -27 285q-10 70 -17 70
l-66 -158q-45 -107 -54 -201l-190 -47q33 122 75 248q32 96 94 232q27 60 76 150q3 9 3 15q0 16 -13 52q-16 46 -18 53l184 41q54 -217 78 -406q3 0 23 46l20 49q32 76 143 276l20 2q57 7 130 11q-35 -63 -71 -139q12 14 26 27q118 112 269 112q229 0 324 -155l-43 -29
q21 -60 21 -103q0 -31 -9 -87q-30 -175 -130 -278q-110 -114 -280 -114q-139 0 -217 96q-72 89 -72 231q0 20 1 42z" />
    <glyph glyph-name="trademark" unicode="&#x2122;" horiz-adv-x="1450" 
d="M884 1377h-42q-88 0 -152 -2l44 -24q-49 -92 -118 -318q-25 -86 -62 -233l-6 -2q-67 -12 -184 -45q37 140 84 280q29 87 95 232q16 36 50 104q-94 -9 -216 -24l45 150q108 8 248 16q84 5 275 11l98 22q33 -110 58 -204q36 -133 39 -228q97 202 251 332q67 65 161 104
l147 5l-78 -326q-3 -12 -26 -110l-34 -146q-20 -87 -35 -171l-229 -63q24 91 75 248q16 47 51 166q17 56 50 146q-64 -22 -194 -243q-49 -82 -95 -237l-190 -46q2 11 2 33q0 107 -26 285q-10 70 -18 70l-66 -158q-45 -107 -54 -201l-189 -47q33 122 74 248q32 96 95 232
q26 57 72 144z" />
    <glyph glyph-name="partialdiff" unicode="&#x2202;" horiz-adv-x="1650" 
d="M0 200v1100q0 200 200 200h1100q200 0 200 -200v-1100q0 -200 -200 -200h-1100q-200 0 -200 200zM1475 201v1099q0 175 -175 175h-1100q-174 0 -175 -175v-1100q1 -175 175 -175h1101q174 0 174 176z" />
    <glyph glyph-name="Delta" unicode="&#x2206;" horiz-adv-x="1650" 
d="M0 200v1100q0 200 200 200h1100q200 0 200 -200v-1100q0 -200 -200 -200h-1100q-200 0 -200 200zM1475 201v1099q0 175 -175 175h-1100q-174 0 -175 -175v-1100q1 -175 175 -175h1101q174 0 174 176z" />
    <glyph glyph-name="product" unicode="&#x220f;" horiz-adv-x="1650" 
d="M0 200v1100q0 200 200 200h1100q200 0 200 -200v-1100q0 -200 -200 -200h-1100q-200 0 -200 200zM1475 201v1099q0 175 -175 175h-1100q-174 0 -175 -175v-1100q1 -175 175 -175h1101q174 0 174 176z" />
    <glyph glyph-name="summation" unicode="&#x2211;" horiz-adv-x="1650" 
d="M0 200v1100q0 200 200 200h1100q200 0 200 -200v-1100q0 -200 -200 -200h-1100q-200 0 -200 200zM1475 201v1099q0 175 -175 175h-1100q-174 0 -175 -175v-1100q1 -175 175 -175h1101q174 0 174 176z" />
    <glyph glyph-name="minus" unicode="&#x2212;" horiz-adv-x="900" 
d="M257 946l769 30l-79 -220l-779 -30z" />
    <glyph glyph-name="radical" unicode="&#x221a;" horiz-adv-x="1650" 
d="M0 200v1100q0 200 200 200h1100q200 0 200 -200v-1100q0 -200 -200 -200h-1100q-200 0 -200 200zM1475 201v1099q0 175 -175 175h-1100q-174 0 -175 -175v-1100q1 -175 175 -175h1101q174 0 174 176z" />
    <glyph glyph-name="infinity" unicode="&#x221e;" horiz-adv-x="1650" 
d="M0 200v1100q0 200 200 200h1100q200 0 200 -200v-1100q0 -200 -200 -200h-1100q-200 0 -200 200zM1475 201v1099q0 175 -175 175h-1100q-174 0 -175 -175v-1100q1 -175 175 -175h1101q174 0 174 176z" />
    <glyph glyph-name="integral" unicode="&#x222b;" horiz-adv-x="1650" 
d="M0 200v1100q0 200 200 200h1100q200 0 200 -200v-1100q0 -200 -200 -200h-1100q-200 0 -200 200zM1475 201v1099q0 175 -175 175h-1100q-174 0 -175 -175v-1100q1 -175 175 -175h1101q174 0 174 176z" />
    <glyph glyph-name="approxequal" unicode="&#x2248;" horiz-adv-x="1650" 
d="M0 200v1100q0 200 200 200h1100q200 0 200 -200v-1100q0 -200 -200 -200h-1100q-200 0 -200 200zM1475 201v1099q0 175 -175 175h-1100q-174 0 -175 -175v-1100q1 -175 175 -175h1101q174 0 174 176z" />
    <glyph glyph-name="lessequal" unicode="&#x2264;" horiz-adv-x="1650" 
d="M0 200v1100q0 200 200 200h1100q200 0 200 -200v-1100q0 -200 -200 -200h-1100q-200 0 -200 200zM1475 201v1099q0 175 -175 175h-1100q-174 0 -175 -175v-1100q1 -175 175 -175h1101q174 0 174 176z" />
    <glyph glyph-name="greaterequal" unicode="&#x2265;" horiz-adv-x="1650" 
d="M0 200v1100q0 200 200 200h1100q200 0 200 -200v-1100q0 -200 -200 -200h-1100q-200 0 -200 200zM1475 201v1099q0 175 -175 175h-1100q-174 0 -175 -175v-1100q1 -175 175 -175h1101q174 0 174 176z" />
    <glyph glyph-name="uniF001" unicode="&#xf001;" horiz-adv-x="1073" 
 />
    <glyph glyph-name="uniF001" unicode="&#xfb01;" horiz-adv-x="1073" 
 />
    <glyph glyph-name="uniF002" unicode="&#xf002;" horiz-adv-x="1081" 
 />
    <glyph glyph-name="uniF002" unicode="&#xfb02;" horiz-adv-x="1081" 
 />
  </font>
</defs>
</svg>
